<?xml version="1.0" encoding="utf-8"?>
<!-- Generator: Adobe Illustrator 16.0.0, SVG Export Plug-In . SVG Version: 6.00 Build 0)  -->
<!DOCTYPE svg PUBLIC "-//W3C//DTD SVG 1.1//EN" "http://www.w3.org/Graphics/SVG/1.1/DTD/svg11.dtd">
<svg version="1.1" id="Layer_1" xmlns="http://www.w3.org/2000/svg" xmlns:xlink="http://www.w3.org/1999/xlink" x="0px" y="0px"
	 width="125.178px" height="114.667px" viewBox="0 0 125.178 114.667" enable-background="new 0 0 125.178 114.667"
	 xml:space="preserve">
<g>
	<g>
		<path fill="#FFC80F" d="M60.921,95.213c-8.506,0-15.403-2.301-15.403-5.134c0-1.55,0-3.245,0-5.136
			c0-0.446,0.223-0.869,0.544-1.283c1.717,2.211,7.689,3.85,14.859,3.85c7.171,0,13.144-1.639,14.862-3.85
			c0.32,0.414,0.543,0.837,0.543,1.283c0,1.487,0,3.064,0,5.136C76.326,92.913,69.426,95.213,60.921,95.213z"/>
		<path fill="#27B899" d="M60.921,84.944c-8.506,0-15.403-2.302-15.403-5.135c0-1.551,0-3.242,0-5.134
			c0-0.272,0.103-0.538,0.241-0.8l0,0c0.077-0.164,0.181-0.326,0.303-0.484c1.717,2.209,7.689,3.852,14.859,3.852
			c7.171,0,13.144-1.643,14.862-3.852c0.122,0.158,0.227,0.32,0.303,0.484l0,0c0.139,0.262,0.24,0.527,0.24,0.8
			c0,1.487,0,3.062,0,5.134C76.326,82.642,69.426,84.944,60.921,84.944z"/>
		<g>
			<path fill="#2D4470" d="M60.921,59.27c-8.506,0-15.403,2.301-15.403,5.134c0,0.904,0,1.752,0,2.567c0,0.898,0,1.758,0,2.568
				c0,2.834,6.897,5.136,15.403,5.136c8.505,0,15.405-2.302,15.405-5.136c0-0.953,0-1.782,0-2.568c0-0.916,0-1.767,0-2.567
				C76.326,61.571,69.426,59.27,60.921,59.27z M60.921,66.971c-5.671,0-10.269-1.146-10.269-2.567c0-1.419,4.598-2.567,10.269-2.567
				c5.672,0,10.271,1.148,10.271,2.567C71.191,65.825,66.593,66.971,60.921,66.971z"/>
		</g>
	</g>
	<g>
		<g>
			<path fill="none" stroke="#2C4168" stroke-miterlimit="10" d="M60.921,80.882c-17.614,0-22.701-7.491-22.701-18.193V54.74
				c0,0,0-27.721,0-32.058"/>
			<path fill="none" stroke="#2C4168" stroke-miterlimit="10" d="M60.921,91.882c19.481,0,22.704-6.485,22.704-23.67V27.36
				c0,0,0-0.341,0-4.678"/>
			<path fill="#FFC80F" d="M86.848,71.539c0.051-1.78-1.342-3.271-3.131-3.324c-1.773-0.053-3.264,1.349-3.314,3.127
				c-0.057,1.777,1.346,3.265,3.123,3.327C85.305,74.715,86.793,73.318,86.848,71.539z"/>
			<path fill="#27B899" d="M41.442,22.78c0.053-1.78-1.343-3.272-3.131-3.325c-1.773-0.053-3.263,1.351-3.313,3.126
				c-0.057,1.78,1.347,3.268,3.122,3.328C39.9,25.958,41.39,24.56,41.442,22.78z"/>
			<path fill="#27B899" d="M41.442,52.974c0.053-1.779-1.343-3.271-3.131-3.323c-1.773-0.053-3.263,1.349-3.313,3.126
				c-0.057,1.778,1.347,3.266,3.122,3.328C39.9,56.152,41.39,54.754,41.442,52.974z"/>
			<path fill="#FFC80F" d="M86.847,43.56c0.053-1.78-1.342-3.272-3.13-3.325c-1.774-0.053-3.263,1.351-3.313,3.126
				c-0.057,1.78,1.346,3.268,3.122,3.328C85.304,46.738,86.794,45.34,86.847,43.56z"/>
		</g>
	</g>
</g>
</svg>
