<?xml version="1.0" encoding="utf-8"?>
<!-- Generator: Adobe Illustrator 16.0.0, SVG Export Plug-In . SVG Version: 6.00 Build 0)  -->
<!DOCTYPE svg PUBLIC "-//W3C//DTD SVG 1.1//EN" "http://www.w3.org/Graphics/SVG/1.1/DTD/svg11.dtd">
<svg version="1.1" id="Layer_1" xmlns="http://www.w3.org/2000/svg" xmlns:xlink="http://www.w3.org/1999/xlink" x="0px" y="0px"
	 width="125.178px" height="114.667px" viewBox="0 0 125.178 114.667" enable-background="new 0 0 125.178 114.667"
	 xml:space="preserve">
<g>
	<g>
		<line fill="none" stroke="#2C4168" stroke-miterlimit="10" x1="23.337" y1="57.334" x2="102.841" y2="57.334"/>
		<path fill="none" stroke="#2C4168" stroke-miterlimit="10" d="M81.729,57.334c-13.79,0-5.815,22.701-23,22.701h-7.948
			c0,0-27.722,0-32.059,0"/>
		<path fill="none" stroke="#2C4168" stroke-miterlimit="10" d="M54.35,57.334c-13.79,0-5.815-22.704-23-22.704H23.4
			c0,0-0.341,0-4.678,0"/>
		<path fill="#FFC80F" d="M18.82,54.11c-1.779-0.051-3.272,1.343-3.325,3.131c-0.053,1.773,1.351,3.265,3.126,3.315
			c1.78,0.057,3.268-1.347,3.328-3.124C21.998,55.653,20.601,54.165,18.82,54.11z"/>
		<path fill="#FFC80F" d="M64.351,54.11c-1.78-0.051-3.271,1.343-3.323,3.131c-0.053,1.773,1.348,3.265,3.126,3.315
			c1.778,0.057,3.265-1.347,3.327-3.124C67.527,55.653,66.131,54.165,64.351,54.11z"/>
		<path fill="#27B899" d="M18.82,76.813c-1.779-0.053-3.272,1.343-3.325,3.131c-0.053,1.773,1.351,3.263,3.126,3.313
			c1.78,0.057,3.268-1.347,3.328-3.122C21.998,78.355,20.601,76.866,18.82,76.813z"/>
		<path fill="#27B899" d="M55.805,76.813c-1.78-0.053-3.271,1.343-3.324,3.131c-0.053,1.773,1.349,3.263,3.127,3.313
			c1.777,0.057,3.265-1.347,3.327-3.122C58.981,78.355,57.584,76.866,55.805,76.813z"/>
		<path fill="#FFC80F" d="M18.82,31.409c-1.779-0.053-3.272,1.342-3.325,3.13c-0.053,1.774,1.351,3.263,3.126,3.313
			c1.78,0.057,3.268-1.346,3.328-3.122C21.998,32.952,20.601,31.461,18.82,31.409z"/>
		<path fill="#FFC80F" d="M103.045,50.5c-3.773-0.109-6.936,2.846-7.045,6.639c-0.113,3.76,2.861,6.916,6.628,7.025
			c3.772,0.121,6.921-2.855,7.054-6.622C109.783,53.772,106.82,50.614,103.045,50.5z"/>
		<path fill="#27B899" d="M102.937,54.11c-1.782-0.051-3.275,1.343-3.325,3.131c-0.051,1.773,1.35,3.265,3.126,3.315
			c1.78,0.057,3.267-1.347,3.329-3.124C106.113,55.653,104.717,54.165,102.937,54.11z"/>
		<g>
			<polygon fill="#2C4168" points="21.383,46.467 18.881,48.965 17.273,47.355 16.506,48.122 18.879,50.499 21.383,48.002 
				22.929,46.459 23.744,45.643 22.979,44.876 22.931,44.925 			"/>
		</g>
	</g>
</g>
</svg>
