<?xml version="1.0" encoding="utf-8"?>
<!-- Generator: Adobe Illustrator 16.0.0, SVG Export Plug-In . SVG Version: 6.00 Build 0)  -->
<!DOCTYPE svg PUBLIC "-//W3C//DTD SVG 1.1//EN" "http://www.w3.org/Graphics/SVG/1.1/DTD/svg11.dtd">
<svg version="1.1" id="Layer_1" xmlns="http://www.w3.org/2000/svg" xmlns:xlink="http://www.w3.org/1999/xlink" x="0px" y="0px"
	 width="125.178px" height="114.667px" viewBox="0 0 125.178 114.667" enable-background="new 0 0 125.178 114.667"
	 xml:space="preserve">
<g>
	<g>
		<g>
			<rect x="53.515" y="85.95" fill="#2D4470" width="7.829" height="0.418"/>
			<path fill="#2D4470" d="M91.335,85.447c0-0.021-0.004-0.044-0.014-0.063c-0.004-0.017-0.011-0.027-0.017-0.033l-0.004-0.003
				c-0.017-0.023-0.042-0.047-0.077-0.073l-6.692-4.697c-0.325-0.228-1.877-0.409-3.476-0.409h0.553
				c0.957,0,1.732-0.775,1.732-1.732V49.622c0-0.955-0.775-1.729-1.732-1.729H33.566c-0.957,0-1.731,0.774-1.731,1.729v28.813
				c0,0.957,0.774,1.732,1.731,1.732h0.556c-1.597,0-3.151,0.182-3.48,0.409l-6.688,4.697c-0.045,0.031-0.074,0.063-0.09,0.093
				l-0.028,0.015c-0.087,0.062-0.006,1.057,0.001,1.112c0.031,0.286,1.203,0.498,2.954,0.498h61.593
				c1.768,0,2.947-0.217,2.956-0.507C91.341,86.441,91.372,85.716,91.335,85.447z M33.611,78.335V49.723h47.825v28.612H33.611z
				 M47.534,84.987l1.997-1.877c0.101-0.089,0.565-0.164,1.042-0.164h14.029c0.477,0,0.943,0.075,1.039,0.164l1.998,1.877
				c0.157,0.148-0.219,0.271-0.848,0.271H48.383C47.755,85.257,47.378,85.135,47.534,84.987z M53.515,86.368V85.95h7.829v0.418
				H53.515z"/>
		</g>
		<g>
			<path fill="#2D4470" d="M65.853,65.328c0,0.033-0.003,0.056-0.01,0.068c-0.418,1.751-1.293,3.169-2.625,4.257
				c-1.332,1.087-2.893,1.631-4.682,1.631c-0.954,0-1.877-0.18-2.768-0.539c-0.892-0.359-1.687-0.871-2.385-1.538L52.12,70.47
				c-0.125,0.124-0.271,0.187-0.441,0.187s-0.316-0.062-0.441-0.187c-0.123-0.124-0.186-0.271-0.186-0.44v-4.389
				c0-0.17,0.062-0.316,0.186-0.44c0.125-0.124,0.271-0.187,0.441-0.187h4.389c0.17,0,0.316,0.062,0.44,0.187
				s0.187,0.271,0.187,0.44s-0.062,0.317-0.187,0.441l-1.342,1.342c0.464,0.431,0.989,0.764,1.577,0.999s1.198,0.353,1.832,0.353
				c0.875,0,1.691-0.212,2.448-0.637c0.758-0.425,1.365-1.009,1.822-1.753c0.071-0.111,0.245-0.493,0.519-1.146
				c0.053-0.15,0.15-0.226,0.295-0.226h1.881c0.084,0,0.158,0.031,0.22,0.094C65.821,65.169,65.853,65.243,65.853,65.328z
				 M66.098,57.492v4.388c0,0.17-0.062,0.317-0.187,0.441c-0.123,0.124-0.271,0.186-0.44,0.186h-4.388
				c-0.17,0-0.317-0.062-0.441-0.186s-0.186-0.271-0.186-0.441c0-0.169,0.062-0.316,0.186-0.44l1.352-1.352
				c-0.967-0.895-2.105-1.342-3.418-1.342c-0.875,0-1.691,0.212-2.449,0.637c-0.758,0.424-1.365,1.009-1.822,1.753
				c-0.072,0.111-0.244,0.493-0.52,1.146c-0.052,0.15-0.15,0.225-0.293,0.225h-1.949c-0.086,0-0.158-0.03-0.221-0.093
				c-0.062-0.062-0.094-0.136-0.094-0.221v-0.068c0.425-1.75,1.307-3.169,2.646-4.256c1.339-1.088,2.905-1.631,4.702-1.631
				c0.953,0,1.881,0.181,2.781,0.543c0.901,0.363,1.701,0.874,2.4,1.533l1.273-1.264c0.124-0.124,0.271-0.186,0.44-0.186
				s0.317,0.062,0.44,0.186C66.036,57.174,66.098,57.322,66.098,57.492z"/>
		</g>
	</g>
	<g>
		<g>
			<path fill="#2D4470" d="M27.078,35.35H14.013c-0.805,0-1.459,0.653-1.459,1.458v26.227c0,0.805,0.654,1.457,1.459,1.457h13.065
				c0.805,0,1.458-0.652,1.458-1.457V36.808C28.536,36.003,27.883,35.35,27.078,35.35z M20.546,63.537
				c-0.571,0-1.033-0.463-1.033-1.037c0-0.569,0.462-1.032,1.033-1.032c0.57,0,1.033,0.463,1.033,1.032
				C21.579,63.074,21.116,63.537,20.546,63.537z M27.593,60.725H13.499V37.167h14.094V60.725z"/>
		</g>
		<path fill="#FFC80F" d="M20.656,45.779c-2.034-0.059-3.737,1.532-3.796,3.574c-0.061,2.025,1.542,3.727,3.57,3.784
			c2.03,0.065,3.728-1.537,3.798-3.565C24.284,47.541,22.688,45.84,20.656,45.779z"/>
		<path fill="#FFC80F" d="M42.472,60.813c-2.035-0.059-3.738,1.532-3.796,3.574c-0.061,2.025,1.542,3.727,3.569,3.784
			c2.031,0.065,3.729-1.537,3.799-3.565C46.099,62.575,44.504,60.875,42.472,60.813z"/>
	</g>
	<g>
		<path fill="#2D4470" d="M86.413,29.073v31.022c0,0.771,0.627,1.396,1.398,1.396h23.414c0.771,0,1.398-0.625,1.398-1.396V29.073
			c0-0.771-0.627-1.398-1.398-1.398H87.812C87.04,27.674,86.413,28.301,86.413,29.073z M88.317,29.705h22.4v29.661h-22.4V29.705z"/>
	</g>
	<path fill="#27B899" d="M96.218,44.694c-0.059-2.033,1.531-3.736,3.574-3.795c2.025-0.061,3.727,1.541,3.783,3.569
		c0.066,2.03-1.537,3.728-3.564,3.798C97.979,48.322,96.278,46.727,96.218,44.694z"/>
	<path fill="#27B899" d="M73.679,60.813c2.033-0.059,3.736,1.532,3.795,3.574c0.061,2.025-1.541,3.727-3.569,3.784
		c-2.03,0.065-3.728-1.537-3.798-3.565C70.051,62.575,71.646,60.875,73.679,60.813z"/>
</g>
</svg>
