<?xml version="1.0" encoding="UTF-8" standalone="no"?>
<!-- Generator: Adobe Illustrator 16.0.0, SVG Export Plug-In . SVG Version: 6.00 Build 0)  -->

<svg
   xmlns:dc="http://purl.org/dc/elements/1.1/"
   xmlns:cc="http://creativecommons.org/ns#"
   xmlns:rdf="http://www.w3.org/1999/02/22-rdf-syntax-ns#"
   xmlns:svg="http://www.w3.org/2000/svg"
   xmlns="http://www.w3.org/2000/svg"
   xmlns:sodipodi="http://sodipodi.sourceforge.net/DTD/sodipodi-0.dtd"
   xmlns:inkscape="http://www.inkscape.org/namespaces/inkscape"
   version="1.1"
   id="Layer_1"
   x="0px"
   y="0px"
   width="600"
   height="240"
   viewBox="0 0 600 240"
   enable-background="new 0 0 338.595 184.111"
   xml:space="preserve"
   sodipodi:docname="img7.svg"
   inkscape:version="0.92.3 (2405546, 2018-03-11)"><metadata
   id="metadata97"><rdf:RDF><cc:Work
       rdf:about=""><dc:format>image/svg+xml</dc:format><dc:type
         rdf:resource="http://purl.org/dc/dcmitype/StillImage" /><dc:title></dc:title></cc:Work></rdf:RDF></metadata><defs
   id="defs95" /><sodipodi:namedview
   pagecolor="#ffffff"
   bordercolor="#666666"
   borderopacity="1"
   objecttolerance="10"
   gridtolerance="10"
   guidetolerance="10"
   inkscape:pageopacity="0"
   inkscape:pageshadow="2"
   inkscape:window-width="3114"
   inkscape:window-height="1722"
   id="namedview93"
   showgrid="false"
   inkscape:zoom="19.31163"
   inkscape:cx="40.922818"
   inkscape:cy="-7.1183461"
   inkscape:window-x="1730"
   inkscape:window-y="409"
   inkscape:window-maximized="0"
   inkscape:current-layer="Layer_1" />
<g
   id="g6"
   transform="matrix(2.175361,0,0,2.1651401,-86.939793,-67.075322)">
	<path
   d="m 242.475,38.741 c -0.051,1.771 1.333,3.252 3.109,3.304 1.768,0.052 3.248,-1.343 3.299,-3.108 0.057,-1.768 -1.34,-3.246 -3.108,-3.307 -1.767,-0.047 -3.247,1.34 -3.3,3.111 z"
   id="path2"
   inkscape:connector-curvature="0"
   style="fill:#ffc70a" />
	
		<line
   stroke-miterlimit="10"
   x1="245.679"
   y1="42.046001"
   x2="245.679"
   y2="142.401"
   id="line4"
   style="fill:none;stroke:#ffffff;stroke-miterlimit:10;stroke-dasharray:2, 2" />
</g>
<g
   id="g12"
   transform="matrix(2.175361,0,0,2.1651401,-86.939793,-67.075322)">
	<path
   d="m 90.024,62.694 c -0.051,1.772 1.333,3.255 3.111,3.304 1.767,0.055 3.247,-1.34 3.298,-3.106 0.056,-1.769 -1.34,-3.247 -3.109,-3.308 -1.766,-0.049 -3.247,1.34 -3.3,3.11 z"
   id="path8"
   inkscape:connector-curvature="0"
   style="fill:#ffc70a" />
	<line
   stroke-miterlimit="10"
   x1="93.228996"
   y1="66"
   x2="93.228996"
   y2="141.814"
   id="line10"
   style="fill:none;stroke:#ffffff;stroke-miterlimit:10;stroke-dasharray:2, 2" />
</g>
<g
   id="g18"
   transform="matrix(2.175361,0,0,2.1651401,-86.939793,-67.075322)">
	<path
   d="m 191.755,62.694 c -0.051,1.772 1.333,3.255 3.111,3.304 1.767,0.055 3.248,-1.34 3.298,-3.106 0.057,-1.769 -1.34,-3.247 -3.109,-3.308 -1.765,-0.049 -3.246,1.34 -3.3,3.11 z"
   id="path14"
   inkscape:connector-curvature="0"
   style="fill:#ffc70a" />
	<line
   stroke-miterlimit="10"
   x1="194.96001"
   y1="66"
   x2="194.96001"
   y2="141.814"
   id="line16"
   style="fill:none;stroke:#ffffff;stroke-miterlimit:10;stroke-dasharray:2, 2" />
</g>
<g
   id="g24"
   transform="matrix(2.175361,0,0,2.1651401,-86.939793,-67.075322)">
	<path
   d="m 293.197,72.322 c -0.051,1.77 1.334,3.25 3.112,3.303 1.765,0.052 3.247,-1.343 3.298,-3.109 0.056,-1.766 -1.34,-3.245 -3.108,-3.306 -1.767,-0.048 -3.247,1.339 -3.302,3.112 z"
   id="path20"
   inkscape:connector-curvature="0"
   style="fill:#26b89a" />
	
		<line
   stroke-miterlimit="10"
   x1="296.40201"
   y1="75.625"
   x2="296.40201"
   y2="141.814"
   id="line22"
   style="fill:none;stroke:#ffffff;stroke-miterlimit:10;stroke-dasharray:2, 2" />
</g>
<g
   id="g38"
   transform="matrix(2.175361,0,0,2.1651401,-86.939793,-67.075322)">
	<path
   d="m 39.967,92.705 c -0.05,1.771 1.333,3.254 3.111,3.304 1.767,0.055 3.248,-1.34 3.298,-3.106 0.057,-1.769 -1.34,-3.247 -3.109,-3.308 -1.766,-0.05 -3.246,1.339 -3.3,3.11 z"
   id="path26"
   inkscape:connector-curvature="0"
   style="fill:#ffc70a" />
	
		<line
   stroke-miterlimit="10"
   x1="43.077999"
   y1="97.163002"
   x2="43.077999"
   y2="141.814"
   id="line28"
   style="fill:none;stroke:#ffffff;stroke-miterlimit:10;stroke-dasharray:2, 2" />
	<g
   id="g36">
		<line
   stroke-miterlimit="10"
   x1="50.061001"
   y1="89.467003"
   x2="61.603001"
   y2="89.467003"
   id="line30"
   style="fill:none;stroke:#ffffff;stroke-miterlimit:10" />
		<line
   stroke-miterlimit="10"
   x1="50.061001"
   y1="92.801003"
   x2="61.603001"
   y2="92.801003"
   id="line32"
   style="fill:none;stroke:#ffffff;stroke-miterlimit:10" />
		<line
   stroke-miterlimit="10"
   x1="50.061001"
   y1="96.136002"
   x2="58.782001"
   y2="96.136002"
   id="line34"
   style="fill:none;stroke:#ffffff;stroke-miterlimit:10" />
	</g>
</g>
<g
   id="g48"
   transform="matrix(2.175361,0,0,2.1651401,-86.939793,-67.075322)">
	<g
   id="g46">
		<line
   stroke-miterlimit="10"
   x1="100.118"
   y1="59.583"
   x2="105.66"
   y2="59.583"
   id="line40"
   style="fill:none;stroke:#ffffff;stroke-miterlimit:10" />
		<line
   stroke-miterlimit="10"
   x1="100.118"
   y1="62.917"
   x2="111.66"
   y2="62.917"
   id="line42"
   style="fill:none;stroke:#ffffff;stroke-miterlimit:10" />
		<line
   stroke-miterlimit="10"
   x1="100.118"
   y1="66.250999"
   x2="108.838"
   y2="66.250999"
   id="line44"
   style="fill:none;stroke:#ffffff;stroke-miterlimit:10" />
	</g>
</g>
<g
   id="g58"
   transform="matrix(2.175361,0,0,2.1651401,-86.939793,-67.075322)">
	<g
   id="g56">
		<line
   stroke-miterlimit="10"
   x1="201.672"
   y1="59.583"
   x2="213.213"
   y2="59.583"
   id="line50"
   style="fill:none;stroke:#ffffff;stroke-miterlimit:10" />
		<line
   stroke-miterlimit="10"
   x1="201.672"
   y1="62.917"
   x2="206.213"
   y2="62.917"
   id="line52"
   style="fill:none;stroke:#ffffff;stroke-miterlimit:10" />
		<line
   stroke-miterlimit="10"
   x1="201.672"
   y1="66.250999"
   x2="210.39301"
   y2="66.250999"
   id="line54"
   style="fill:none;stroke:#ffffff;stroke-miterlimit:10" />
	</g>
</g>
<g
   id="g68"
   transform="matrix(2.175361,0,0,2.1651401,-86.939793,-67.075322)">
	<g
   id="g66">
		<line
   stroke-miterlimit="10"
   x1="251.698"
   y1="35.502998"
   x2="263.23901"
   y2="35.502998"
   id="line60"
   style="fill:none;stroke:#ffffff;stroke-miterlimit:10" />
		<line
   stroke-miterlimit="10"
   x1="251.698"
   y1="38.837002"
   x2="259.23901"
   y2="38.837002"
   id="line62"
   style="fill:none;stroke:#ffffff;stroke-miterlimit:10" />
		<line
   stroke-miterlimit="10"
   x1="251.698"
   y1="42.172001"
   x2="256.418"
   y2="42.172001"
   id="line64"
   style="fill:none;stroke:#ffffff;stroke-miterlimit:10" />
	</g>
</g>
<g
   id="g90"
   transform="matrix(2.175361,0,0,2.1651401,-86.939793,-67.075322)">
	<path
   d="m 141.238,92.011 c -0.051,1.77 1.334,3.25 3.112,3.303 1.765,0.052 3.247,-1.343 3.297,-3.109 0.056,-1.766 -1.339,-3.245 -3.108,-3.306 -1.766,-0.048 -3.246,1.34 -3.301,3.112 z"
   id="path70"
   inkscape:connector-curvature="0"
   style="fill:#26b89a" />
	
		<line
   stroke-miterlimit="10"
   x1="144.44299"
   y1="95.315002"
   x2="144.44299"
   y2="141.814"
   id="line72"
   style="fill:none;stroke:#ffffff;stroke-miterlimit:10;stroke-dasharray:2, 2" />
	<g
   id="g80">
		<rect
   x="150.855"
   y="87.209999"
   stroke-miterlimit="10"
   width="11.542"
   height="9.7919998"
   id="rect74"
   style="fill:none;stroke:#ffffff;stroke-miterlimit:10" />
		<path
   d="m 154.357,89.633 c 0.225,0.226 0.338,0.499 0.338,0.82 0,0.323 -0.113,0.597 -0.338,0.821 -0.227,0.226 -0.499,0.339 -0.821,0.339 -0.322,0 -0.596,-0.113 -0.821,-0.339 -0.225,-0.225 -0.338,-0.498 -0.338,-0.821 0,-0.321 0.113,-0.595 0.338,-0.82 0.226,-0.225 0.499,-0.338 0.821,-0.338 0.322,0 0.594,0.114 0.821,0.338 z"
   id="path76"
   inkscape:connector-curvature="0"
   style="fill:#ffffff" />
		<polygon
   points="160.876,95.476 152.376,95.476 152.376,94.318 154.309,92.385 155.274,93.351 158.365,90.261 160.876,92.772 "
   id="polygon78"
   style="fill:#ffffff" />
	</g>
	<g
   id="g88">
		<rect
   x="303.741"
   y="67.521004"
   stroke-miterlimit="10"
   width="11.541"
   height="9.7919998"
   id="rect82"
   style="fill:none;stroke:#ffffff;stroke-miterlimit:10" />
		<path
   d="m 307.243,69.944 c 0.225,0.226 0.338,0.499 0.338,0.82 0,0.323 -0.113,0.597 -0.338,0.821 -0.227,0.226 -0.5,0.339 -0.822,0.339 -0.322,0 -0.596,-0.113 -0.82,-0.339 -0.226,-0.225 -0.338,-0.498 -0.338,-0.821 0,-0.321 0.112,-0.595 0.338,-0.82 0.225,-0.225 0.498,-0.338 0.82,-0.338 0.322,0 0.595,0.113 0.822,0.338 z"
   id="path84"
   inkscape:connector-curvature="0"
   style="fill:#ffffff" />
		<polygon
   points="313.761,75.787 305.262,75.787 305.262,74.628 307.194,72.696 308.16,73.662 311.25,70.572 313.761,73.083 "
   id="polygon86"
   style="fill:#ffffff" />
	</g>
</g>
</svg>