<svg xmlns="http://www.w3.org/2000/svg" width="50" height="50" fill="none" xmlns:v="https://vecta.io/nano"><path d="M25 50a24.99 24.99 0 0 0 25-25C50 11.171 38.757 0 25 0A24.99 24.99 0 0 0 0 25a24.99 24.99 0 0 0 25 25z" fill="#004c45"/><path d="M28.626 34.059c-.014-1.211-1.633-2.191-3.634-2.191-2.014-.014-3.648.98-3.648 2.191v3.321l.014 1.211c-.014.068-.014.123-.014.191 0 1.211 1.62 2.205 3.634 2.219s3.648-.98 3.648-2.191c0-.068 0-.15-.014-.218l.014-1.211v-3.321z" fill="#262533"/><g opacity=".1"><path d="M24.964 36.344c-1.824 0-3.294-.844-3.648-1.66-.054.123-.095.395.027.463v.395c.381.885 1.756 1.81 3.512 1.81 1.892 0 3.498-.803 3.797-1.701v-.34c0-.123.027-.204-.027-.327-.381.83-1.837 1.361-3.661 1.361z" fill="#bcbcbc"/></g><g opacity=".1"><path d="M24.964 37.855c-1.824 0-3.294-.844-3.648-1.661-.054.123-.095.395.027.463v.395c.381.885 1.756 1.81 3.512 1.81 1.892 0 3.498-.803 3.797-1.701v-.34c0-.123.027-.204-.027-.327-.381.844-1.837 1.375-3.661 1.361z" fill="#000"/></g><path d="M24.964 37.61c-1.824 0-3.294-.844-3.648-1.661a.9.9 0 0 0-.082.367c0 1.007 1.524 2.3 3.621 2.3s3.838-.98 3.838-1.987c0-.136-.027-.259-.082-.381-.367.83-1.824 1.361-3.648 1.361z" fill="#bcbcbc"/><g opacity=".1"><path d="M24.964 39.516c-1.824 0-3.294-.844-3.648-1.66-.054.123-.095.395.027.463v.395c.381.885 1.756 1.81 3.512 1.81 1.892 0 3.498-.803 3.797-1.701v-.34c0-.136.027-.204-.027-.327-.381.83-1.837 1.361-3.661 1.361z" fill="#000"/></g><path d="M24.964 39.257c-1.824 0-3.294-.844-3.648-1.66a.9.9 0 0 0-.082.367c0 1.007 1.524 2.3 3.621 2.3s3.838-.98 3.838-1.987a.96.96 0 0 0-.082-.381c-.368.83-1.824 1.361-3.648 1.361z" fill="#bcbcbc"/><g opacity=".1"><path d="M28.626 35.284c-.64 2.232-3.471 3.906-6.86 3.906-.122 0-.259 0-.381-.014.299 1.034 1.797 1.824 3.58 1.824 2.014.014 3.648-.98 3.648-2.191 0-.068.014-.15 0-.218 0 0 .054-.054.054-.327 0-.15-.068-.327-.068-.327l.014-.558s-.014-.163 0-.395c.014-.15.068-.354.054-.436 0-.068-.054-.286-.054-.286v-.98h.014z" fill="#000"/></g><g fill="#ffe840"><path d="M34.751 21.346c0 5.199-4.219 9.419-9.419 9.419s-9.419-4.219-9.419-9.419 4.219-9.419 9.419-9.419c5.213.014 9.419 4.219 9.419 9.419z"/><path fill-rule="evenodd" d="M31.675 28.314s-2.001 1.402-3.035 5.445h-7.255s-.054-3.103-2.763-5.798l13.053.354z"/></g><g opacity=".5"><path fill-rule="evenodd" d="M31.266 19.943c0 4.11-3.62 5.567-7.731 5.567s-6.125-1.293-6.125-5.404 3.838-6.629 7.949-6.629c4.124.014 5.907 2.355 5.907 6.465z" fill="#fff"/></g><path d="M22.46 16.881c0 .749-.613 1.361-1.361 1.361s-1.361-.613-1.361-1.361.613-1.361 1.361-1.361 1.361.613 1.361 1.361zm-2.382 2.151a.79.79 0 0 1-.789.79.79.79 0 0 1-.79-.79.79.79 0 0 1 .79-.789c.449.014.789.354.789.789z" fill="#fbffff"/><path d="M28.64 33.758c0 1.048-1.62 1.892-3.621 1.892s-3.621-.844-3.621-1.892 1.62-1.892 3.621-1.892 3.621.858 3.621 1.892z" fill="#f2d925"/><g fill="#e8af1f"><path d="M26.911 33.745c0 .558-.871 1.021-1.96 1.021-1.075 0-1.96-.463-1.96-1.021s.871-1.021 1.96-1.021c1.075 0 1.96.449 1.96 1.021z"/><path d="M23.794 34.262c-.272-.735-2.423-6.724-1.13-7.704.231-.177.504.136.789.476.204.231.449.517.558.463.054-.027.095-.34.109-.49.041-.34.095-.681.299-.694.231-.014.313.395.395.79.041.218.122.585.191.613.095.027.259-.313.367-.531.177-.367.354-.708.572-.653.204.055.272.422.354.803.041.204.109.585.177.585.109 0 .231-.449.327-.735.136-.476.286-.966.558-.871.163.068.3.218.381.449.558 1.688-1.443 7.241-1.524 7.5l-.259.041c.027-.054 2.123-5.853 1.592-7.418-.054-.163-.136-.259-.245-.299-.082-.027-.231.436-.3.694-.136.49-.272.939-.531.926-.218-.027-.3-.422-.367-.803-.041-.218-.109-.585-.177-.599-.095-.027-.259.313-.368.531-.177.367-.354.694-.572.653-.204-.041-.286-.422-.367-.817-.041-.191-.109-.585-.177-.585-.041.027-.082.313-.095.463-.041.327-.082.626-.259.708-.231.109-.49-.191-.762-.517-.191-.218-.449-.531-.558-.449-.939.721.558 5.567 1.252 7.5l-.231-.027z"/></g></svg>