<svg xmlns="http://www.w3.org/2000/svg" width="50" height="50" fill="none" xmlns:v="https://vecta.io/nano"><path d="M25 50a24.99 24.99 0 0 0 25-25C50 11.171 38.757 0 25 0A24.99 24.99 0 0 0 0 25a24.99 24.99 0 0 0 25 25z" fill="#b7cdc4"/><path d="M25.048 9C16.207 9 9 16.159 9 25s7.159 16 16 16 16-7.159 16-16c.048-8.793-7.111-16-15.952-16z" fill="#73d19c"/><g fill="#fff"><path d="M39.078 20.051c-.769-3.988-3.027-7.159-6.198-8.937 1.057.673 1.778 1.057 2.979 2.162 1.057 1.057 1.153 1.153 1.778 1.922.913 1.249.961 1.345 1.441 2.162.721 1.442.721 1.489 1.057 2.402l.24.769.048.192c.48 2.018.24 2.546.24 2.546-.192-.673-.096-1.441-.336-2.114-.192-.721-.577-1.345-.817-2.018v.048c-.144-.048-.288-.336-.288-.336.048.432.096.913-.096 1.201.048 0 0 0-.048 0zm-19.555 7.592c0 .096-.096.096-.192.096l-.048-.048c.048-.048.24-.048.24-.048zm-3.556.144c-.096-.048-.144-.096-.192-.096.048 0 .096-.048.144-.048 0 0 .048 0 .048.048v.096zm7.495-11.34c-.048 0-.048.048-.048.048 0-.048 0-.048.048-.048zm-7.303-2.018l-.048.048s0-.048.048-.048zm5.67-.384c-.048 0-.048 0-.048-.048l-.048-.048-.048-.048c.048.048.096.048.144.144zm-.336-.432c-.048-.048 0-.048 0 0h0zm.769-.144c-.048 0-.096.096-.144.144.048-.144.096-.144.144-.144h0zm2.114.577c-.048-.096-.048-.096-.336-.384.048-.048.096-.096.144-.096l-.048-.048h.096c-.096-.096-.144-.24-.24-.288 0 0-.048 0-.096.048-.048-.096-.048-.24-.144-.336-.048 0-.096 0-.144.048v.096h.096c-.048.048-.144.048-.24.096.144-.144.144-.144.144-.24-.048 0-.288 0-.577.24l.048.048s-.048 0-.048.048v-.096c.144-.144.192-.144.336-.288-.048 0-.048 0-.096-.048-.144.048-.432.144-.625.336.048 0 .048 0 .096.048h-.096s-.048.048-.048.096c.048.048.096.096.384.144l-.048.048c-.24.144-.336.192-.529.24l.048-.048c-.048.048-.144.096-.192.144l-.048-.048c.192-.144.192-.144.24-.24h-.096l-.048-.048h-.096c.24-.192.24-.192.192-.336.336-.096.432-.096.529-.192 0 0-.913.144-1.009.48.048 0 .048 0 .096.048-.192.192-.48.336-.48.336l.144-.144-.048-.048c.144-.048.192-.048.288-.096 0 0 0-.048-.048-.096-.24 0-.288.048-.384.096h.096c-.336.24-.48.096-.577.048 0 0 .048-.048.048-.096-.144-.144-.288-.096-.336-.048-.096.144-.096.144-.192.24.048-.048.096-.144.144-.192h-.433c.048-.048.096-.048.144-.048 0-.048.048-.048.048-.096s0-.048-.048-.096c-.144-.048-.288-.048-.384-.144l.144-.048c-.096 0-.096 0-.24.048l.144-.144v-.048c-.192.096-.288.144-1.249-.384-.288-.192-.529-.288-.721-.24-.336.048-.432.384-.769.432l.048-.048c-.24-.096-.336-.048-.384 0v.048c-.144.048-.144.048-.192.144.048.048.096.048.144.048-.961.192-.961.192-1.249.432.048 0 .144 0 .192-.048a1.44 1.44 0 0 0-.384.192c.048.048.096.096.144.096-.096.048-.096.048-1.105.288.048.048.144.096.961 0-.144.048-.192.048-.288.096a.53.53 0 0 0 .432-.096h-.096c.673-.529.673-.529.817-.529l-.432.144c.144-.048.336.048.48.048l-.048.048h.096c0 .048-.048.096-.096.144.192 0 .192 0 .24.096-.192.432-.625.625-.865.961.144-.048.144-.048.336-.192-.192.192-.721.769-.913 1.057v-.096h-.096c-2.546 2.883-2.546 2.883-2.787 3.988-.24 1.009-.24 1.105-.384 1.153.048.096.048.144-.048.529-.096.769-.144 1.105-.048 1.153.336-.769.144-1.682.625-2.402.096.096.096.144-.048.48-.192.336-.384 2.499.048 3.748.048.144.144.24.24.384.432.577.432.577 1.73 1.489.625.432.048 1.345.673 1.778l.144-.144c.048 0 .048.048.096.048 0 0 0 .048.048.096l-.048.048v.096l.048.048c.144-.048.24-.144.384-.192-.144-.384-.432-.673-.577-1.009-.096-.336.048-.721-.144-1.057-.144-.24-.432-.288-.625-.432 0 0 .769-1.249.625-1.489-.48-.048-.48.721-.961.625 0 0-.577-.192-.625-.961 0-.096 1.057-1.922 1.537-2.114.24-.096.384 0 .48.336h.096l.481-.288c.288.336.288.336.48 1.778.048 0 .096-.048.144-.048.288-.577.336-1.201.721-1.73.288-.384.817-.432 1.105-.817.24-.288.24-.673.529-.913 0 0 .048 0 .096-.048-.24.384-.288.432-.336.577.144-.096.144-.096.384-.529v.096c.192-.24.48-.384.576-.48.048 0 .144-.048.192 0 .048-.048.096-.048.144-.096l.048.048c.192-.048.192-.048.24-.096v-.096l-.048.048-.048-.048c.048-.096.048-.096.625-.481l-.048.048c.192-.048.673-.24.817-.288l-.048.048c.048 0 .048 0 .096.048-.433.288-.433.288-.433.384.384-.048 1.105-.529 1.249-.721-.144-.048-.24-.048-.432.048-.048-.048-.048-.048-.096-.336-.144 0-.192 0-.288-.048.096 0 .24.048.48-.192l-.048-.048c-.336.048-.961.336-1.153.433.913-.577 3.267-.24 2.739-1.682-.048 0-.144-.048-.192-.048-.192-.384.24-.721.048-1.105-.144.144-.432.384-.625.432v-.096c0-.192.048-.24.096-.384 0-.048-.048-.096-.096-.096 0-.048.048-.048.048-.096-.384-.529-.769.048-1.009.384-.769 1.153-1.586 1.586-1.586 1.586 0-.048-.048-.048-.048-.096a1.87 1.87 0 0 1 .432-.721v-.048c-.192-.192-.529-.432-.721-.48.144-.192.192-.192.24-.288l-.048-.048v-.096c.336-.24.961-.625 1.201-.673-.048 0-.096-.048-.144-.096.192.048.192.048 1.009-.24-.192.144-.336.288-.529.384.576.096.576.096.673.048-.048-.048-.048-.048-.048-.432 0 0-.048.048-.096.048v-.144s.048.048.096.048v.096c.24-.192.625-.24.673-.625.24.048.336.048.384-.144 0 .048.048.144.048.192l-.048.048s.048.048.048.096h.096c-.048.048-.048.096-.096.144.048 0 .096-.048.144-.096v.096c-.096.144-.24.24-.336.384-.48.048-.48.048-.529.096.432 0 .48.577.865.625 0-.144 0-.144-.096-.336.096.048.144.24.288.288 0-.096.048-.192.048-.24l.048.048c0-.336 0-.336-.048-.432 0-.288.288-.144.48-.288z"/><path d="M15.438 21.781c-.048-.048-.048-.096 0-.144v.144zm7.544-6.823c-.048.048 0 .048 0 0-.048 0-.048 0 0 0zM17.6 27.595c-.048.048-.048.096-.096.144 0 .048-.048.048-.048.096 0-.048.144-.24.144-.24zm6.919 5.429c.048-.24.192-.721-.048-.865-.625-.432-.384-.336-1.057-.577 0-.192 0-.24-.048-.384-.865-.192-.865-.192-1.105.192 0-.048-1.249-3.604-2.114-2.594 0-.529-.769-1.105-1.009-1.153-.769-.288-1.249-.625-1.345-.673 0 0 0 .048-.048.048-.144.144-.144.192-.288.288-.048-.048-.048-.096-.048-.144.192-.144.192-.144.192-.192-.048-.192-.144-.192-.336-.144-.432.288-.625.769-1.009 1.057-.096-.048-.144-.048-.24-.096 0 .096 0 .096.144 1.249-.961.384-.384 2.45-.096 3.075 0 0 .673 1.297 1.153 1.826.384.432.913.673 1.297 1.105.384.384.336.48.336.913-.048.288.288 1.201.913 2.162a6.51 6.51 0 0 0 .913 1.057c0-.096 0-.096-.144-.24h.048s.24.192.336.384c-.048-.048-.096-.048-.144-.096.192.24.192.24.24.336.432.048.673.384 1.009.625h-.048c.192.144 1.153.336 1.153.336s0-.048.048-.048c-1.345-.529-1.345-1.201-1.345-1.201.048 0 .096 0 .144.048-.096-.144-.288-.144-.384-.288.288-.096.288-.144.336-.24h-.048l.529-.144-.384-.432s0-.048-.048-.096c0 .048.048.096.048.096.432.336.673-.432 1.057-.529.144-.288.192-.625.384-.913.24-.384.288-.432.529-.577.529-.24.529-3.171.529-3.171zm.913-19.604l-.048.048c-.048 0-.048-.048-.096-.048h.144zm2.066-.577c-.048.048-.048.048 0 .096-.048 0-.048-.048-.096-.096h.096zm-2.739-.48c-.048.048 0 .048 0 0-.048.048-.048.048 0 0zm2.979-.577s0-.048-.048-.048c-.048.048-.384 0-.384 0v.096h-.048c0-.048 0-.048-.192-.048.048-.048.096-.048.144-.096-.048-.048-.048-.048-.577.048l.048-.048c0-.048-.048-.048-.096-.048l-.432.144c-.048 0-.048 0-.096-.048 0 .096.096.048.144.096l-.288-.048s0 .048.048.048h-.096c-.673.048-.817.192-.865.192h.096v.048c-.192.096-.432-.048-.577.192 0 .048 0 .048.144.096-.144 0-.144 0-.144.048 0 0-.048.096.048.144.048.048.24.048.336 0h.288c.096.048.048.144.096.192-.096.192 0 .192 0 .192-.048.048-.048.096-.096.144 0 0 .048 0 .048-.048-.048.096-.144.24 0 .192.048 0 .096-.048.096-.096 0 .096.048.144.096.144v.048c-.048 0-.048 0-.144-.096-.096.048-.24.288-.192.336 0 0 .048.048.192 0-.24.336-.24.336-.24.432h.048c-.192.48-.048.625.384 1.153.384-.144 1.249-.961 1.489-1.489.288.24.625-.144.769-.336h-.288c.144-.048.288 0 .384-.048 0-.048 0-.048-.336-.288.096.048.192.048.192-.048 0-.048 0-.048-.144-.096.048-.048.144-.048.192-.096h-.048c.096-.048.096-.048.096-.096l-.096-.048c.048-.144-.144-.144-.144-.24.048 0 .144.048.192.096l-.048-.144c-.048-.048-.096 0-.144 0h.048c-.096-.144-.096-.096-.144 0-.048-.144-.048-.192.144-.288.096-.144.144-.192.144-.24zm3.7 4.421v.288c.048 0 .192 0 .048.096-.24.192-.529.192-.769.336 0-.048 0-.048.24-.384-.048 0-.24.048-.336 0v-.096c.048-.096.048-.096.048-.144-.096 0-.096 0-.144-.096.048-.048.048-.288 0-.433-.048.048-.144.096-.192.048l-.048-.096v-.096l-.048.144-.048-.192c-.048.144-.048.144-.048.096-.048-.096.048-.144.048-.192l-.048.048v.048c-.048-.048-.048-.144-.048-.192 0 .048 0 .096-.048.144-.048-.048-.048-.144-.096-.24.24-.096.144-.336.24-.48h.048c.048.096 0 .336 0 .336.048 0 .048 0 .096-.048s.096-.048.144 0l.673.913c.192.144.288.096.288.192zm.336-4.805c0 .048.048.048 0 0h0z"/><path d="M32.88 11.835s-.048 0-.096-.048c-.096-.048-.144-.048-.192-.048 0 0 .048 0 .192.048 0 0 .048.048.096.048zm-.288-.096c0 .048 0 .048.192.144.384.192.384.24.384.288h-.144c0-.048-.288-.24-.769-.48.192.048.24.048.336.048zm.336-.625c-.48-.288-.961-.529-1.489-.721-.048 0-.096 0-.144-.048l.288.288c-.048 0-.096-.048-.144-.048.096.096.24.144.384.24l-.721-.336c-.048 0-.048.048-.096.096.433.529.433.529.673.577.096.144.096.144.336.192-.048 0-.096.048-.144.048.048 0 .096.048.144.048 0 .048.048.048.048.048-.048 0-.096-.048-.144-.048.096.048.192.096.24.144-.336-.144-.336-.144-.529-.192.288.24.48.336.673.384.096.048.192.096.288.096-.096.048-.288.048-.384.048l.288.144c-.048 0-.096 0-.144-.048.048.144 0 .288.048.432l-.096.096c-.048-.048-.192-.096-.24-.144.144.096.288.144.384.24v.144l.192.192h-.144l.096.096c-.192 0-.192 0-.625-.24.048-.048.144-.144.24-.144-.144-.336-.865-.288-.961-.24a.51.51 0 0 0-.24-.096v.048l-.048-.096-.048.096h-.144c-.096.288-.096.288-.048.432-.048.048-.096.048-.096.096s0 .096.048.144c.048 0 .144.048.24.048.192.384-.096.865.096 1.249.048.144.336.577.721.384v-.192c.336.288.384.336.625.817h.192c.144-.817-.865-1.201-.673-2.018.24.913.817.721 1.009.625-.048.096-.144.192-.192.288 0 .096.096.192.144.24 0-.048.048-.096.048-.144.096.048.144.144.24.192-.144.769-.144.769-.288.913 0 0-.336.192-.529-.048s-.192-.577-.529-.721c.048.144.048.192.432.817-.048.144-.192.528-.721 1.105 0 .192 0 .24-.24.432.24.336.673.48.721.913-.288.288-.817.144-1.009.625-.048.144-.048.192.24 1.441.433 0 1.778.048 1.345-.865-.192-.384.336-1.153.625-1.345.432-.288 1.489 1.057 1.441 1.057-.096.096-.144.24.096.48.384-.144.192-1.009.192-1.009.048 0 .096 0 .144.048-.384-.432-1.153-.432-1.345-1.105.144-.048.192-.048.384.144.096.096 1.489 1.201 1.922 1.297v-.048c0-.096 0-.096-.48-.576 0-.192 0-.192.24-.288.048 0 .096.048.144.096.048.288.048.288.192.384 0 .048 0 .096.048.144.24.048.288.24.336.384 0-.048.048-.096.048-.144.048.048.096.144.144.192 0-.048-.048-.096-.048-.144.432.048.577-.192.673-.288.625.817.432 1.249.336 1.393-.384.625-1.105.288-1.586.625v.192c-.384-.192-.384-.192-1.297-.432-.144-.048-.192-.144-.192-.529-.048-.48-.288-.48-.384-.48-.625.048-2.691 1.73-2.691 1.73-.961 1.009-1.874 4.901-1.345 5.766 1.634 2.739 2.354 2.306 3.748 1.634 1.441-.769 1.922.192 1.97.288l.192 3.411c-.192 1.105-.192 1.105-1.489 4.565.048.048.096.048.096.096 3.315-1.345 6.198-8.36 5.958-12.637-.144.048-.144.048-.529.384-.336-1.634-1.586-2.787-2.306-4.276a3.82 3.82 0 0 1 .288.384c.048-.096.048-.192 0-.288.384.577 1.73 2.45 2.066 3.652.384-2.45.384-2.45.096-3.459-.384-.48-.384-.577-.48-.721 0 .288.096.529.048.817-.096-.144-.144-.336-.24-.529v.192c-.144-.192-.48-.577-.577-.913h.144c.384.432.384.432.529.48 0-.096.048-.192.048-.24.432.096.48.192.625.577-.048-.192-.144-.48-.192-.673-.577-1.489-.625-1.586-1.057-2.402-.817-1.393-.865-1.441-1.441-2.162-.961-1.153-1.057-1.249-1.778-1.922-.865-.48-1.586-1.105-2.931-1.874z"/></g></svg>