<svg width="50" height="50" viewBox="0 0 50 50" fill="none" xmlns="http://www.w3.org/2000/svg">
<path d="M25 50C38.8067 50 50 38.8289 50 25.0003C50 11.1712 38.7574 0 25 0C11.1933 0 0 11.1712 0 25.0003C0 38.8289 11.1933 50 25 50Z" fill="#B7CDC4"/>
<path d="M25.0479 9C16.2071 9 9 16.1591 9 24.9999C9 33.8406 16.1591 40.9998 24.9999 40.9998C33.8406 40.9998 40.9998 33.8406 40.9998 24.9999C41.0478 16.2072 33.8887 9 25.0479 9Z" fill="#73D19C"/>
<path d="M39.078 20.051C38.3093 16.063 36.051 12.8919 32.8799 11.1141C33.9369 11.7868 34.6576 12.1712 35.8588 13.2763C36.9159 14.3333 37.012 14.4294 37.6366 15.1982C38.5495 16.4474 38.5976 16.5435 39.078 17.3603C39.7987 18.8018 39.7987 18.8498 40.1351 19.7627L40.3753 20.5315L40.4234 20.7237C40.9038 22.7417 40.6636 23.2702 40.6636 23.2702C40.4714 22.5975 40.5675 21.8288 40.3273 21.1561C40.1351 20.4354 39.7507 19.8108 39.5105 19.1381V19.1861C39.3663 19.1381 39.2222 18.8498 39.2222 18.8498C39.2702 19.2822 39.3183 19.7627 39.1261 20.051C39.1741 20.051 39.1261 20.051 39.078 20.051Z" fill="white"/>
<path d="M19.5225 27.6425C19.5225 27.7386 19.4264 27.7386 19.3303 27.7386L19.2822 27.6906C19.3303 27.6425 19.5225 27.6425 19.5225 27.6425Z" fill="white"/>
<path d="M15.9671 27.7867C15.871 27.7386 15.823 27.6906 15.7749 27.6906C15.823 27.6906 15.871 27.6425 15.919 27.6425C15.919 27.6425 15.9671 27.6425 15.9671 27.6906C15.9671 27.7386 15.9671 27.7867 15.9671 27.7867Z" fill="white"/>
<path d="M23.4623 16.4474C23.4143 16.4474 23.4143 16.4954 23.4143 16.4954C23.4143 16.4474 23.4143 16.4474 23.4623 16.4474ZM16.1591 14.4294L16.111 14.4774C16.111 14.4774 16.111 14.4294 16.1591 14.4294ZM21.8287 14.045C21.7807 14.045 21.7807 14.045 21.7807 13.997L21.7326 13.9489L21.6846 13.9009C21.7326 13.9489 21.7807 13.9489 21.8287 14.045ZM21.4924 13.6126C21.4443 13.5645 21.4924 13.5645 21.4924 13.6126V13.6126ZM22.2612 13.4684C22.2131 13.4684 22.165 13.5645 22.117 13.6126C22.165 13.4684 22.2131 13.4684 22.2612 13.4684C22.3092 13.4684 22.3092 13.4684 22.2612 13.4684ZM24.3752 14.045C24.3272 13.9489 24.3272 13.9489 24.0389 13.6606C24.087 13.6126 24.135 13.5645 24.1831 13.5645L24.135 13.5165C24.1831 13.5165 24.1831 13.5165 24.2311 13.5165C24.135 13.4204 24.087 13.2762 23.9909 13.2282C23.9909 13.2282 23.9428 13.2282 23.8948 13.2762C23.8467 13.1801 23.8467 13.036 23.7506 12.9399C23.7026 12.9399 23.6545 12.9399 23.6065 12.988C23.6065 13.036 23.6065 13.036 23.6065 13.084C23.6545 13.084 23.6545 13.084 23.7026 13.084C23.6545 13.1321 23.5584 13.1321 23.4623 13.1801C23.6065 13.036 23.6065 13.036 23.6065 12.9399C23.5584 12.9399 23.3182 12.9399 23.0299 13.1801L23.078 13.2282C23.078 13.2282 23.0299 13.2282 23.0299 13.2762C23.0299 13.2282 23.0299 13.2282 23.0299 13.1801C23.1741 13.036 23.2221 13.036 23.3662 12.8919C23.3182 12.8919 23.3182 12.8919 23.2702 12.8438C23.126 12.8919 22.8377 12.988 22.6455 13.1801C22.6936 13.1801 22.6936 13.1801 22.7416 13.2282C22.6936 13.2282 22.6936 13.2282 22.6455 13.2282C22.6455 13.2282 22.5975 13.2762 22.5975 13.3243C22.6455 13.3723 22.6936 13.4204 22.9819 13.4684L22.9338 13.5165C22.6936 13.6606 22.5975 13.7087 22.4053 13.7567L22.4533 13.7087C22.4053 13.7567 22.3092 13.8048 22.2612 13.8528L22.2131 13.8048C22.4053 13.6606 22.4053 13.6606 22.4533 13.5645C22.4053 13.5645 22.4053 13.5645 22.3572 13.5645L22.3092 13.5165C22.2612 13.5165 22.2612 13.5165 22.2131 13.5165C22.4533 13.3243 22.4533 13.3243 22.4053 13.1801C22.7416 13.084 22.8377 13.084 22.9338 12.988C22.9338 12.988 22.0209 13.1321 21.9248 13.4684C21.9729 13.4684 21.9729 13.4684 22.0209 13.5165C21.8287 13.7087 21.5404 13.8528 21.5404 13.8528C21.5885 13.8048 21.6365 13.7567 21.6846 13.7087L21.6365 13.6606C21.7807 13.6126 21.8287 13.6126 21.9248 13.5645C21.9248 13.5645 21.9248 13.5165 21.8768 13.4684C21.6365 13.4684 21.5885 13.5165 21.4924 13.5645C21.5404 13.5645 21.5404 13.5645 21.5885 13.5645C21.2522 13.8048 21.108 13.6606 21.0119 13.6126C21.0119 13.6126 21.06 13.5645 21.06 13.5165C20.9158 13.3723 20.7717 13.4204 20.7236 13.4684C20.6275 13.6126 20.6275 13.6126 20.5314 13.7087C20.5795 13.6606 20.6275 13.5645 20.6756 13.5165C20.2912 13.5165 20.2912 13.5165 20.2431 13.5165C20.2912 13.4684 20.3392 13.4684 20.3873 13.4684C20.3873 13.4204 20.4353 13.4204 20.4353 13.3723C20.4353 13.3243 20.4353 13.3243 20.3873 13.2762C20.2432 13.2282 20.099 13.2282 20.0029 13.1321L20.1471 13.084C20.051 13.084 20.051 13.084 19.9068 13.1321C19.9549 13.084 20.0029 13.036 20.051 12.988V12.9399C19.8588 13.036 19.7627 13.084 18.8017 12.5555C18.5134 12.3633 18.2732 12.2672 18.081 12.3153C17.7447 12.3633 17.6486 12.6997 17.3122 12.7477L17.3603 12.6997C17.12 12.6036 17.024 12.6516 16.9759 12.6997C16.9759 12.7477 16.9759 12.7477 16.9759 12.7477C16.8318 12.7958 16.8318 12.7958 16.7837 12.8919C16.8318 12.9399 16.8798 12.9399 16.9279 12.9399C15.9669 13.1321 15.9669 13.1321 15.6786 13.3723C15.7267 13.3723 15.8228 13.3723 15.8708 13.3243C15.7267 13.3723 15.6306 13.4204 15.4864 13.5165C15.5345 13.5645 15.5825 13.6126 15.6306 13.6126C15.5345 13.6606 15.5345 13.6606 14.5255 13.9009C14.5735 13.9489 14.6696 13.997 15.4864 13.9009C15.3423 13.9489 15.2942 13.9489 15.1981 13.997C15.3903 14.045 15.5825 13.9489 15.6306 13.9009C15.5825 13.9009 15.5345 13.9009 15.5345 13.9009C16.2071 13.3723 16.2071 13.3723 16.3513 13.3723C15.9669 13.5165 15.9669 13.5165 15.9189 13.5165C16.063 13.4684 16.2552 13.5645 16.3993 13.5645C16.3993 13.5645 16.3993 13.5645 16.3513 13.6126C16.3993 13.6126 16.3993 13.6126 16.4474 13.6126C16.4474 13.6606 16.3993 13.7087 16.3513 13.7567C16.5435 13.7567 16.5435 13.7567 16.5915 13.8528C16.3993 14.2852 15.9669 14.4774 15.7267 14.8138C15.8708 14.7657 15.8708 14.7657 16.063 14.6216C15.8708 14.8138 15.3423 15.3903 15.1501 15.6786C15.1501 15.6306 15.1501 15.6306 15.1501 15.5825C15.1501 15.5825 15.102 15.5825 15.054 15.5825C12.5075 18.4654 12.5075 18.4654 12.2672 19.5705C12.027 20.5795 12.027 20.6756 11.8829 20.7236C11.9309 20.8197 11.9309 20.8678 11.8348 21.2522C11.7387 22.0209 11.6907 22.3572 11.7868 22.4053C12.1231 21.6365 11.9309 20.7236 12.4114 20.0029C12.5075 20.099 12.5075 20.1471 12.3633 20.4834C12.1711 20.8197 11.9789 22.9819 12.4114 24.2311C12.4594 24.3753 12.5555 24.4713 12.6516 24.6155C13.084 25.1921 13.084 25.1921 14.3813 26.105C15.006 26.5374 14.4294 27.4503 15.054 27.8827C15.102 27.8347 15.1501 27.7866 15.1981 27.7386C15.2462 27.7386 15.2462 27.7866 15.2942 27.7866C15.2942 27.7866 15.2942 27.8347 15.3423 27.8827L15.2942 27.9308C15.2942 27.9308 15.2942 27.9788 15.2942 28.0269L15.3423 28.0749C15.4864 28.0269 15.5825 27.9308 15.7267 27.8827C15.5825 27.4984 15.2942 27.2101 15.1501 26.8737C15.054 26.5374 15.1981 26.153 15.0059 25.8167C14.8618 25.5764 14.5735 25.5284 14.3813 25.3843C14.3813 25.3843 15.1501 24.135 15.0059 23.8948C14.5255 23.8467 14.5255 24.6155 14.045 24.5194C14.045 24.5194 13.4684 24.3272 13.4204 23.5584C13.4204 23.4623 14.4774 21.6365 14.9579 21.4443C15.1981 21.3482 15.3423 21.4443 15.4384 21.7807H15.5345C15.6786 21.6846 15.8708 21.5885 16.015 21.4924C16.3032 21.8287 16.3032 21.8287 16.4954 23.2702C16.5435 23.2702 16.5915 23.2221 16.6396 23.2221C16.9279 22.6455 16.9759 22.0209 17.3603 21.4924C17.6486 21.108 18.1771 21.06 18.4654 20.6756C18.7056 20.3873 18.7056 20.0029 18.9939 19.7627C18.9939 19.7627 19.042 19.7627 19.09 19.7146C18.8498 20.099 18.8017 20.1471 18.7537 20.2912C18.8978 20.1951 18.8978 20.1951 19.1381 19.7627C19.1381 19.8107 19.1381 19.8107 19.1381 19.8588C19.3302 19.6185 19.6185 19.4744 19.7146 19.3783C19.7627 19.3783 19.8588 19.3302 19.9068 19.3783C19.9549 19.3302 20.0029 19.3302 20.051 19.2822L20.099 19.3302C20.2912 19.2822 20.2912 19.2822 20.3392 19.2342C20.3392 19.1861 20.3392 19.1861 20.3392 19.1381L20.2912 19.1861L20.2431 19.1381C20.2912 19.042 20.2912 19.042 20.8678 18.6576L20.8197 18.7056C21.0119 18.6576 21.4924 18.4654 21.6365 18.4173L21.5885 18.4654C21.6365 18.4654 21.6365 18.4654 21.6846 18.5134C21.2521 18.8017 21.2521 18.8017 21.2521 18.8978C21.6365 18.8498 22.3572 18.3693 22.5014 18.1771C22.3572 18.1291 22.2612 18.1291 22.069 18.2251C22.0209 18.1771 22.0209 18.1771 21.9729 17.8888C21.8287 17.8888 21.7807 17.8888 21.6846 17.8408C21.7807 17.8408 21.9248 17.8888 22.1651 17.6486L22.117 17.6005C21.7807 17.6486 21.1561 17.9369 20.9639 18.033C21.8768 17.4564 24.2311 17.7927 23.7026 16.3513C23.6545 16.3513 23.5584 16.3032 23.5104 16.3032C23.3182 15.9189 23.7506 15.5825 23.5584 15.1981C23.4143 15.3423 23.126 15.5825 22.9338 15.6306C22.9338 15.5825 22.9338 15.5825 22.9338 15.5345C22.9338 15.3423 22.9819 15.2942 23.0299 15.1501C23.0299 15.1021 22.9819 15.054 22.9338 15.054C22.9338 15.006 22.9819 15.006 22.9819 14.9579C22.5975 14.4294 22.2131 15.006 21.9729 15.3423C21.2041 16.4954 20.3873 16.9279 20.3873 16.9279C20.3873 16.8798 20.3392 16.8798 20.3392 16.8318C20.4353 16.4954 20.6756 16.2071 20.7717 16.1111V16.063C20.5795 15.8708 20.2431 15.6306 20.051 15.5825C20.1951 15.3903 20.2431 15.3903 20.2912 15.2942L20.2431 15.2462C20.2431 15.2462 20.2431 15.1981 20.2431 15.1501C20.5795 14.9099 21.2041 14.5255 21.4443 14.4774C21.3963 14.4774 21.3482 14.4294 21.3002 14.3813C21.4924 14.4294 21.4924 14.4294 22.3092 14.1411C22.117 14.2852 21.9729 14.4294 21.7807 14.5255C22.3572 14.6216 22.3572 14.6216 22.4533 14.5735C22.4053 14.5255 22.4053 14.5255 22.4053 14.1411C22.4053 14.1411 22.3573 14.1891 22.3092 14.1891C22.3092 14.1411 22.3092 14.093 22.3092 14.045C22.3092 14.045 22.3572 14.093 22.4053 14.093C22.4053 14.1411 22.4053 14.1411 22.4053 14.1891C22.6455 13.997 23.0299 13.9489 23.078 13.5645C23.3182 13.6126 23.4143 13.6126 23.4623 13.4204C23.4623 13.4684 23.5104 13.5645 23.5104 13.6126L23.4623 13.6606C23.4623 13.6606 23.5104 13.7087 23.5104 13.7567C23.5584 13.7567 23.5584 13.7567 23.6065 13.7567C23.5584 13.8048 23.5584 13.8528 23.5104 13.9009C23.5584 13.9009 23.6065 13.8528 23.6545 13.8048C23.6545 13.8528 23.6545 13.9009 23.6545 13.9009C23.5584 14.045 23.4143 14.1411 23.3182 14.2852C22.8377 14.3333 22.8377 14.3333 22.7897 14.3813C23.2221 14.3813 23.2702 14.9579 23.6545 15.006C23.6545 14.8618 23.6545 14.8618 23.5584 14.6696C23.6545 14.7177 23.7026 14.9099 23.8467 14.9579C23.8467 14.8618 23.8948 14.7657 23.8948 14.7177L23.9428 14.7657C23.9428 14.4294 23.9428 14.4294 23.8948 14.3333C23.8948 14.045 24.1831 14.1891 24.3752 14.045Z" fill="white"/>
<path d="M15.4384 21.7807C15.3903 21.7327 15.3903 21.6846 15.4384 21.6366C15.4384 21.6846 15.4384 21.7327 15.4384 21.7807Z" fill="white"/>
<path d="M22.9818 14.958C22.9338 15.0061 22.9818 15.0061 22.9818 14.958C22.9338 14.958 22.9338 14.958 22.9818 14.958Z" fill="white"/>
<path d="M17.6004 27.5945C17.5523 27.6425 17.5523 27.6906 17.5043 27.7386C17.5043 27.7867 17.4562 27.7867 17.4562 27.8347C17.4562 27.7867 17.6004 27.5945 17.6004 27.5945ZM24.5192 33.0239C24.5673 32.7836 24.7114 32.3031 24.4712 32.159C23.8466 31.7266 24.0868 31.8227 23.4141 31.5824C23.4141 31.3902 23.4141 31.3422 23.3661 31.198C22.5012 31.0059 22.5012 31.0059 22.261 31.3902C22.261 31.3422 21.0118 27.7867 20.1469 28.7957C20.1469 28.2671 19.3781 27.6906 19.1379 27.6425C18.3691 27.3542 17.8887 27.0179 17.7926 26.9698C17.7926 26.9698 17.7926 27.0179 17.7445 27.0179C17.6004 27.162 17.6004 27.2101 17.4562 27.3062C17.4082 27.2581 17.4082 27.2101 17.4082 27.162C17.6004 27.0179 17.6004 27.0179 17.6004 26.9698C17.5523 26.7777 17.4562 26.7777 17.2641 26.8257C16.8316 27.114 16.6394 27.5945 16.255 27.8828C16.159 27.8347 16.1109 27.8347 16.0148 27.7867C16.0148 27.8828 16.0148 27.8828 16.1589 29.0359C15.198 29.4203 15.7746 31.4863 16.0629 32.1109C16.0629 32.1109 16.7355 33.4082 17.216 33.9368C17.6004 34.3692 18.1289 34.6094 18.5133 35.0419C18.8977 35.4262 18.8496 35.5223 18.8496 35.9548C18.8016 36.243 19.1379 37.156 19.7625 38.1169C20.1469 38.6935 20.6754 39.174 20.6754 39.174C20.6754 39.0779 20.6754 39.0779 20.5313 38.9337H20.5793C20.5793 38.9337 20.8196 39.1259 20.9157 39.3181C20.8676 39.2701 20.8196 39.2701 20.7715 39.222C20.9637 39.4622 20.9637 39.4622 21.0118 39.5583C21.4442 39.6064 21.6844 39.9427 22.0208 40.183H21.9727C22.1649 40.3271 23.1259 40.5193 23.1259 40.5193C23.1259 40.5193 23.1259 40.4712 23.1739 40.4712C21.8286 39.9427 21.8286 39.2701 21.8286 39.2701C21.8766 39.2701 21.9247 39.2701 21.9727 39.3181C21.8766 39.174 21.6844 39.174 21.5883 39.0298C21.8766 38.9337 21.8766 38.8857 21.9247 38.7896H21.8766C22.309 38.6935 22.309 38.6935 22.4051 38.6454C22.0688 38.2611 22.0688 38.2611 22.0208 38.213C22.0208 38.213 22.0208 38.165 21.9727 38.1169C21.9727 38.165 22.0208 38.213 22.0208 38.213C22.4532 38.5493 22.6934 37.7806 23.0778 37.6845C23.222 37.3962 23.27 37.0599 23.4622 36.7716C23.7024 36.3872 23.7505 36.3391 23.9907 36.195C24.5192 35.9548 24.5192 33.0239 24.5192 33.0239Z" fill="white"/>
<path d="M25.4323 13.4204L25.3842 13.4685C25.3362 13.4685 25.3361 13.4204 25.2881 13.4204C25.3361 13.4204 25.4323 13.4204 25.4323 13.4204ZM27.4983 12.8438C27.4502 12.8919 27.4502 12.8919 27.4983 12.9399C27.4502 12.9399 27.4502 12.8919 27.4022 12.8438H27.4983ZM24.7596 12.3634C24.7115 12.4114 24.7596 12.4114 24.7596 12.3634C24.7115 12.4114 24.7115 12.4114 24.7596 12.3634ZM27.7385 11.7868C27.7385 11.7868 27.7385 11.7387 27.6905 11.7387C27.6424 11.7868 27.3061 11.7387 27.3061 11.7387C27.3061 11.7868 27.3061 11.7868 27.3061 11.8348H27.2581C27.2581 11.7868 27.2581 11.7868 27.0659 11.7868C27.1139 11.7387 27.162 11.7387 27.21 11.6907C27.162 11.6426 27.162 11.6426 26.6334 11.7387C26.6815 11.6907 26.6815 11.6907 26.6815 11.6907C26.6815 11.6426 26.6334 11.6426 26.5854 11.6426C26.4413 11.6907 26.2971 11.7387 26.153 11.7868C26.1049 11.7868 26.1049 11.7868 26.0569 11.7387C26.0569 11.8348 26.153 11.7868 26.201 11.8348C25.9127 11.7868 25.9127 11.7868 25.9127 11.7868C25.9127 11.7868 25.9127 11.8348 25.9608 11.8348C25.9127 11.8348 25.9127 11.8348 25.8647 11.8348C25.192 11.8829 25.0479 12.027 24.9998 12.027C25.0479 12.027 25.0479 12.027 25.0959 12.027V12.0751C24.9037 12.1712 24.6635 12.027 24.5193 12.2673C24.5193 12.3153 24.5193 12.3153 24.6635 12.3634C24.5193 12.3634 24.5193 12.3634 24.5193 12.4114C24.5193 12.4114 24.4713 12.5075 24.5674 12.5555C24.6154 12.6036 24.8076 12.6036 24.9037 12.5555C25.0479 12.5555 25.144 12.5555 25.192 12.5555C25.2881 12.6036 25.2401 12.6997 25.2881 12.7477C25.192 12.9399 25.2881 12.9399 25.2881 12.9399C25.2401 12.988 25.2401 13.036 25.192 13.0841C25.192 13.0841 25.24 13.0841 25.24 13.036C25.192 13.1321 25.0959 13.2763 25.24 13.2282C25.2881 13.2282 25.3362 13.1802 25.3362 13.1321C25.3362 13.2282 25.3842 13.2763 25.4323 13.2763V13.3243C25.3842 13.3243 25.3842 13.3243 25.2881 13.2282C25.192 13.2763 25.0479 13.5165 25.0959 13.5645C25.0959 13.5645 25.144 13.6126 25.2881 13.5645C25.0479 13.9009 25.0479 13.9009 25.0479 13.997H25.0959C24.9037 14.4775 25.0479 14.6216 25.4803 15.1501C25.8647 15.006 26.7295 14.1892 26.9698 13.6606C27.2581 13.9009 27.5944 13.5165 27.7385 13.3243C27.6424 13.3243 27.5463 13.3243 27.4502 13.3243C27.5944 13.2763 27.7385 13.3243 27.8346 13.2763C27.8346 13.2282 27.8346 13.2282 27.4983 12.988C27.5944 13.036 27.6905 13.036 27.6905 12.9399C27.6905 12.8919 27.6905 12.8919 27.5463 12.8438C27.5944 12.7958 27.6905 12.7958 27.7385 12.7477H27.6905C27.7866 12.6997 27.7866 12.6997 27.7866 12.6516C27.7866 12.6516 27.7866 12.6516 27.6905 12.6036C27.7385 12.4594 27.5463 12.4594 27.5463 12.3634C27.5944 12.3634 27.6905 12.4114 27.7385 12.4594C27.6905 12.3153 27.6905 12.3153 27.6905 12.3153C27.6424 12.2673 27.5944 12.3153 27.5463 12.3153H27.5944C27.4983 12.1712 27.4983 12.2192 27.4502 12.3153C27.4022 12.1712 27.4022 12.1231 27.5944 12.027C27.6905 11.8829 27.7385 11.8348 27.7385 11.7868Z" fill="white"/>
<path d="M31.4382 16.2072C31.4382 16.2552 31.4382 16.2552 31.4382 16.4955C31.4863 16.4955 31.6304 16.4955 31.4862 16.5915C31.246 16.7837 30.9577 16.7837 30.7175 16.9279C30.7175 16.8798 30.7175 16.8798 30.9577 16.5435C30.9097 16.5435 30.7175 16.5915 30.6214 16.5435V16.4474C30.6694 16.3513 30.6694 16.3513 30.6694 16.3033C30.5734 16.3033 30.5733 16.3033 30.5253 16.2072C30.5733 16.1591 30.5733 15.9189 30.5253 15.7747C30.4772 15.8228 30.3812 15.8708 30.3331 15.8228C30.3331 15.8228 30.3331 15.8228 30.2851 15.7267C30.2851 15.6306 30.2851 15.6306 30.2851 15.6306C30.237 15.7747 30.237 15.7747 30.237 15.7747C30.237 15.7747 30.237 15.7747 30.189 15.5825C30.1409 15.7267 30.1409 15.7267 30.1409 15.6786C30.0929 15.5825 30.189 15.5345 30.189 15.4865C30.189 15.4865 30.189 15.4864 30.1409 15.5345C30.1409 15.5825 30.1409 15.5825 30.1409 15.5825C30.0929 15.5345 30.0929 15.4384 30.0929 15.3904C30.0929 15.4384 30.0929 15.4864 30.0448 15.5345C29.9968 15.4864 29.9968 15.3904 29.9487 15.2943C30.189 15.1982 30.0929 14.9579 30.189 14.8138H30.237C30.2851 14.9099 30.237 15.1501 30.237 15.1501C30.2851 15.1501 30.2851 15.1501 30.3331 15.1021C30.3812 15.054 30.4292 15.054 30.4773 15.1021C30.4773 15.1021 31.1019 15.9669 31.1499 16.015C31.3421 16.1591 31.4382 16.1111 31.4382 16.2072Z" fill="white"/>
<path d="M31.7744 11.4024C31.7744 11.4505 31.8225 11.4505 31.7744 11.4024V11.4024Z" fill="white"/>
<path d="M32.8799 11.8348C32.8799 11.8348 32.8318 11.8348 32.7838 11.7868C32.6877 11.7387 32.6397 11.7387 32.5916 11.7387C32.5916 11.7387 32.6396 11.7387 32.7838 11.7868C32.7838 11.7868 32.8318 11.8348 32.8799 11.8348ZM32.5916 11.7387C32.5916 11.7868 32.5916 11.7868 32.7838 11.8829C33.1682 12.0751 33.1682 12.1231 33.1682 12.1711C33.1682 12.1711 33.1201 12.1711 33.024 12.1711C33.024 12.1231 32.7357 11.9309 32.2553 11.6907C32.4475 11.7387 32.4955 11.7387 32.5916 11.7387ZM32.9279 11.1141C32.4475 10.8258 31.967 10.5856 31.4385 10.3934C31.3904 10.3934 31.3424 10.3934 31.2943 10.3453C31.3904 10.4414 31.4865 10.5375 31.5826 10.6336C31.5346 10.6336 31.4865 10.5856 31.4385 10.5856C31.5346 10.6817 31.6787 10.7297 31.8228 10.8258C31.1982 10.5375 31.1982 10.5375 31.1021 10.4895C31.0541 10.4895 31.0541 10.5375 31.006 10.5856C31.4385 11.1141 31.4385 11.1141 31.6787 11.1621C31.7748 11.3063 31.7748 11.3063 32.015 11.3543C31.967 11.3543 31.9189 11.4024 31.8709 11.4024C31.9189 11.4024 31.967 11.4504 32.015 11.4504C32.015 11.4985 32.0631 11.4985 32.0631 11.4985C32.015 11.4985 31.967 11.4504 31.9189 11.4504C32.015 11.4985 32.1111 11.5465 32.1592 11.5946C31.8228 11.4504 31.8228 11.4504 31.6306 11.4024C31.9189 11.6426 32.1111 11.7387 32.3033 11.7868C32.3994 11.8348 32.4955 11.8829 32.5916 11.8829C32.4955 11.9309 32.3033 11.9309 32.2072 11.9309C32.3033 11.979 32.3994 12.027 32.4955 12.0751C32.4475 12.0751 32.3994 12.0751 32.3514 12.027C32.3994 12.1711 32.3514 12.3153 32.3994 12.4594C32.3514 12.5075 32.3514 12.5075 32.3033 12.5555C32.2553 12.5075 32.1111 12.4594 32.0631 12.4114C32.2072 12.5075 32.3514 12.5555 32.4475 12.6516C32.4475 12.6997 32.4475 12.7477 32.4475 12.7958C32.4955 12.8438 32.5916 12.9399 32.6397 12.988C32.5916 12.988 32.5436 12.988 32.4955 12.988C32.5436 13.036 32.5916 13.0841 32.5916 13.0841C32.3994 13.0841 32.3994 13.0841 31.967 12.8438C32.015 12.7958 32.1111 12.6997 32.2072 12.6997C32.0631 12.3633 31.3424 12.4114 31.2463 12.4594C31.1982 12.4114 31.0541 12.3633 31.006 12.3633C31.006 12.4114 31.006 12.4114 31.006 12.4114L30.958 12.3153L30.9099 12.4114C30.8619 12.4114 30.8138 12.4114 30.7658 12.4114C30.6697 12.6997 30.6697 12.6997 30.7177 12.8438C30.6697 12.8919 30.6216 12.8919 30.6216 12.9399C30.6216 12.988 30.6216 13.036 30.6697 13.0841C30.7177 13.0841 30.8138 13.1321 30.9099 13.1321C31.1021 13.5165 30.8138 13.997 31.006 14.3813C31.0541 14.5255 31.3424 14.9579 31.7267 14.7657C31.7267 14.7177 31.7267 14.6216 31.7267 14.5735C32.0631 14.8618 32.1111 14.9099 32.3514 15.3903C32.3994 15.3903 32.4955 15.3903 32.5436 15.3903C32.6877 14.5735 31.6787 14.1892 31.8709 13.3723C32.1111 14.2852 32.6877 14.0931 32.8799 13.997C32.8318 14.0931 32.7357 14.1892 32.6877 14.2852C32.6877 14.3813 32.7838 14.4774 32.8318 14.5255C32.8318 14.4774 32.8799 14.4294 32.8799 14.3813C32.976 14.4294 33.024 14.5255 33.1201 14.5735C32.976 15.3423 32.976 15.3423 32.8318 15.4864C32.8318 15.4864 32.4955 15.6786 32.3033 15.4384C32.1111 15.1982 32.1111 14.8618 31.7748 14.7177C31.8228 14.8618 31.8228 14.9099 32.2072 15.5345C32.1592 15.6786 32.015 16.063 31.4865 16.6396C31.4865 16.8318 31.4865 16.8798 31.2463 17.072C31.4865 17.4083 31.9189 17.5525 31.967 17.9849C31.6787 18.2732 31.1502 18.1291 30.958 18.6095C30.9099 18.7537 30.9099 18.8017 31.1982 20.051C31.6307 20.051 32.976 20.099 32.5436 19.1861C32.3514 18.8017 32.8799 18.033 33.1682 17.8408C33.6006 17.5525 34.6576 18.8978 34.6096 18.8978C34.5135 18.9939 34.4655 19.1381 34.7057 19.3783C35.0901 19.2342 34.8979 18.3693 34.8979 18.3693C34.9459 18.3693 34.994 18.3693 35.042 18.4173C34.6577 17.9849 33.8889 17.9849 33.6967 17.3123C33.8408 17.2642 33.8889 17.2642 34.0811 17.4564C34.1772 17.5525 35.5706 18.6576 36.003 18.7537C36.003 18.7537 36.003 18.7537 36.003 18.7056C36.003 18.6095 36.003 18.6095 35.5225 18.1291C35.5225 17.9369 35.5225 17.9369 35.7628 17.8408C35.8108 17.8408 35.8588 17.8888 35.9069 17.9369C35.9549 18.2252 35.9549 18.2252 36.0991 18.3213C36.0991 18.3693 36.0991 18.4173 36.1471 18.4654C36.3874 18.5134 36.4354 18.7056 36.4835 18.8498C36.4835 18.8017 36.5315 18.7537 36.5315 18.7056C36.5796 18.7537 36.6276 18.8498 36.6757 18.8978C36.6757 18.8498 36.6276 18.8017 36.6276 18.7537C37.06 18.8017 37.2042 18.5615 37.3003 18.4654C37.9249 19.2822 37.7327 19.7146 37.6366 19.8588C37.2522 20.4834 36.5315 20.1471 36.051 20.4834C36.051 20.5314 36.051 20.6275 36.051 20.6756C35.6666 20.4834 35.6667 20.4834 34.7537 20.2432C34.6096 20.1951 34.5616 20.099 34.5616 19.7146C34.5135 19.2342 34.2733 19.2342 34.1772 19.2342C33.5526 19.2822 31.4865 20.9639 31.4865 20.9639C30.5255 21.9729 29.6126 25.8647 30.1412 26.7296C31.7748 29.4683 32.4955 29.0359 33.8889 28.3632C35.3303 27.5945 35.8108 28.5554 35.8588 28.6515L36.051 32.0629C35.8588 33.168 35.8588 33.168 34.5616 36.6274C34.6096 36.6755 34.6576 36.6755 34.6576 36.7235C37.9729 35.3782 40.8558 28.3632 40.6156 24.087C40.4714 24.135 40.4714 24.135 40.087 24.4714C39.7507 22.8377 38.5015 21.6846 37.7807 20.1951C37.9729 20.4353 37.9729 20.4353 38.069 20.5795C38.1171 20.4834 38.1171 20.3873 38.069 20.2912C38.4534 20.8678 39.7987 22.7416 40.1351 23.9428C40.5195 21.4924 40.5195 21.4924 40.2312 20.4834C39.8468 20.0029 39.8468 19.9068 39.7507 19.7627C39.7507 20.051 39.8468 20.2912 39.7988 20.5795C39.7027 20.4353 39.6546 20.2432 39.5585 20.051C39.5585 20.099 39.5585 20.1471 39.5585 20.2432C39.4144 20.051 39.078 19.6666 38.9819 19.3303C39.03 19.3303 39.078 19.3303 39.1261 19.3303C39.5105 19.7627 39.5105 19.7627 39.6546 19.8107C39.6546 19.7146 39.7027 19.6185 39.7027 19.5705C40.1351 19.6666 40.1831 19.7627 40.3273 20.1471C40.2792 19.9549 40.1831 19.6666 40.1351 19.4744C39.5585 17.9849 39.5105 17.8888 39.078 17.072C38.2612 15.6786 38.2132 15.6306 37.6366 14.9099C36.6757 13.7567 36.5796 13.6606 35.8588 12.988C34.994 12.5075 34.2733 11.8829 32.9279 11.1141Z" fill="white"/>
</svg>
