<svg xmlns="http://www.w3.org/2000/svg" width="124" height="101" fill="none" xmlns:v="https://vecta.io/nano"><path d="M114.4 20.8a4 4 0 1 0 0-8 4 4 0 1 0 0 8zm6.4-16a2.4 2.4 0 1 0 0-4.8 2.4 2.4 0 1 0 0 4.8zM28 10.4a2.4 2.4 0 0 0 0-4.8 2.4 2.4 0 0 0 0 4.8zM4.8 68.8a4.8 4.8 0 1 0 0-9.6 4.8 4.8 0 1 0 0 9.6zm62.4 32c26.509 0 48-21.448 48-47.999s-21.586-48-48-48c-26.509 0-48 21.449-48 48s21.491 48 48 48z" fill="#b7cdc4"/><g fill="#fff"><path d="M82.571 58.43l-.656-.38 11.967-3.11.656.38-11.967 3.11z"/><path d="M82.581 61.84l-.656-.38-.01-3.41.656.38.01 3.41zM67.593 75.37l-.656-.39-.01-3.4.656.38.01 3.41z"/><path d="M67.583 71.96l-.656-.38 14.989-13.53.656.38-14.989 13.53zm26.956-16.64l-.656-.38L93.774 17l.656.39.109 37.93z"/><path d="M52.574 79.27l-.01-3.41 15.019-3.9.01 3.41-15.019 3.9z"/><path d="M52.564 75.86l-.656-.38 15.019-3.9.656.38-15.019 3.9z"/><path d="M52.574 79.27l-.656-.38-.01-3.41.656.38.01 3.41z"/></g><g fill="#73d19c"><path d="M82.462 20.49l-.656-.38L93.774 17l.656.39-11.967 3.1z"/><path d="M82.572 58.429l-.656-.38-.109-37.94.656.38.109 37.94z"/><path d="M82.462 20.49l11.967-3.1.109 37.93-11.967 3.11-.109-37.94z"/></g><g fill="#fff"><path d="M82.452 17.09l15.019-3.91.129 44.76-15.019 3.9-.01-3.41 11.967-3.11-.109-37.93-11.918 3.09-.06-3.39z"/><path d="M82.452 17.09l-.656-.39 15.019-3.9.656.38-15.019 3.91z"/><path d="M82.512 20.48l-.656-.39-.06-3.39.656.39.06 3.39zM40.617 86.64l-.656-.38 11.947-10.78.656.38-11.947 10.78z"/></g><path d="M67.583 71.96l-.656-.38-.109-37.94.656.38.109 37.94z" fill="#73d19c"/><path d="M67.583 71.96l-.656-.38-.109-37.94.656.38.109 37.94z" fill="#fff"/><g fill="#73d19c"><path d="M82.462 20.491l.109 37.94-14.989 13.53-.109-37.94 14.989-13.53z"/><path d="M67.473 34.019l-.656-.38 14.989-13.53.656.38-14.989 13.53z"/></g><g fill="#fff"><path d="M67.463 30.61l-.656-.38L81.796 16.7l.656.39-14.989 13.52z"/><path d="M67.473 34.02l-.656-.38-.01-3.41.656.38.01 3.41z"/><path d="M82.452 17.09l.01 3.4-14.989 13.53.109 37.94 14.989-13.53.01 3.41-14.989 13.53-.01-3.41-.109-37.94-.01-3.41 14.989-13.52z"/></g><g fill="#73d19c"><path d="M52.455 37.92l-.656-.38 15.019-3.9.656.38-15.019 3.9z"/><path d="M52.564 75.861l-.656-.38-.109-37.94.656.38.109 37.94z"/><path d="M52.455 37.92l15.019-3.9.109 37.94-15.019 3.9-.109-37.94z"/></g><g fill="#fff"><path d="M52.445 34.52l-.656-.39 15.019-3.9.656.38-15.019 3.91z"/><path d="M52.455 37.92l-.656-.38-.01-3.41.656.39.01 3.4z"/><path d="M52.445 34.519l15.019-3.91.01 3.41-15.019 3.9-.01-3.4z"/></g><g fill="#73d19c"><path d="M40.617 86.64l-.656-.38-.109-37.94.666.39.099 37.93z"/><path d="M40.518 48.711l-.666-.39 11.947-10.78.656.38-11.937 10.79z"/><path d="M52.455 37.92l.109 37.94-11.947 10.78-.099-37.93 11.937-10.79z"/></g><g fill="#fff"><path d="M37.456 48.04l-.656-.38 14.989-13.53.656.39-14.989 13.52z"/><path d="M37.585 92.8l-.656-.39-.129-44.75.656.38.129 44.76z"/><path d="M52.445 34.52l.01 3.4-11.937 10.79.099 37.93 11.947-10.78.01 3.41L37.585 92.8l-.129-44.76 14.989-13.52zm1.878 24.549l-.179.16c0 .01.02.03.03.03.109-.06.169-.13.149-.2v.01zm-1.441.481s-.02.02 0 .02v-.02zm-1.689 1.87c.05 0 .109-.01.159-.02v-.06c0-.06-.07 0-.149.08h-.01z"/><path d="M56.888 47.49s.09-.08.109-.12c0-.02-.109-.07-.099-.1-.785.5.099-.91-.408-.94.01 0-.775 1.18-.736.83 0 .02-.08-.33.03-.5-.08.03-.219.05-.229.06.229-.28-.388-.08-.547.06-.507.21-.567 1.65-.984 2.11-.427.47-.437.95-.716 1.31-.388.49 0-.87.02-.84-.08-.09-1.004.14-1.252.29.02-.03.149-.43.129-.44-.05-.03-.139.11-.199.09-.109-.03 1.123-1.72 1.173-1.66-.06-.07-.258.14-.318.06.587-.13.825-.67 1.322-1.16l-.487.79c.099-.08.815-.37.964-.6-.099.15-.268-.34-.368-.29-.03.02-.02.16-.079.21.04-.09.07-.18-.01-.14v-.07c.179-.14.149.1.278.02.069-.04-.05-.11-.05-.12.129-.23.865-.75.686-1.08-.01-.02.646-.28.566-.52.07.06.159.17.259.09 0 .1-.189.08-.179.22 0 .04.229-.1.258-.13 0 .1-.119.22-.109.24.04.2.169-.21.169-.22.02.05.03 0 .079 0-.06.29-.388.55-.388.75-.149.19-.686.3-.745.63.06-.34 1.153-.05 1.382-.18.149-.09-.189-.28-.189-.3.169-.1.298.12.427.05.119-.07 0-.25.06-.32.03.02.03.06.08.03-.08.05.02-.24.05-.27-.04-.05-.278-.12-.268-.13.03-.11.676-.22.984-.77l-.686.01c0-.07.308-.25.308-.31 0-.02-.119.03-.139.03v-.03c.03-.01.099-.02.119-.07.06-.16-.139 0-.179.03.04-.16-.298-.29-.447.04-.06-.13-.169-.09-.219-.16.04-.28-.427.02-.427.12.02.24.239-.11.318-.08.02 0-.477.42-.477.41 0-.05.169-.28.159-.37 0-.12-.815.59-.855.81 0 .06.119-.04.119.01l-.07.08c-.328.11.358-.7.358-.69-.04-.14-1.014.79-1.014 1.07 0 0 .248-.12.288-.12-.03.02-.318.14-.308.22.03.16.736-.26.736-.26s-.06.08-.06.09c-.189.25-.427.52-.696.76-.01 0 .05-.09.05-.11l-.278.38c0-.02-.03-.07-.06-.07 0 0 .378-.56.109-.4-.02.01-.05.04-.08.08 0-.15-.268.09-.278.08.099-.14.358-.49.099-.49.149-.13.785-.65.865-.86-.03.09-1.302 1.04-1.441 1.51-.06.18.189.01.209 0 0 .03.02.02.04.02-.089.09-.487.53-.487.68 0 .01-.07.07-.07.07-.01 0-.03-.01-.04 0 .01-.04.159-.26.159-.26 0-.03-.139.08-.159.05a4.54 4.54 0 0 0 .427-.44c.05-.15-.686.34-.656.48.02.06.139-.09.169-.07-.239.33-.517.59-.944.67.258-.24-.457 0-.527.26 0-.01.099.15-.03.32 0 0-.05.02-.06.01.02-.06 0-.17-.109-.1.01-.02.119-.12.119-.13 0-.02-.716.57-.825.54 0-.09.318-.2.268-.29-.149-.22-.904.4-1.133.48.01-.02.02-.03.04-.04.01 0 .099-.16.099-.17-.02-.12-.388.41-.388.34 0 0 .05-.21.04-.23h-.07c.02-.01-.248.4-.278.32 0 0 .04-.04.05-.07-.338.39-5.337 2.57-5.258 3.42 0 .07.139.28.258.09 0 .2-.328.41-.407.43.02-.02.109-.13.099-.16 0 .02-.845.61-.845.72 0 .05.129-.02.149-.03-.02.01-.179.18-.179.24.01.11.507-.23.726-.43-.477.5-1.739 1.55-1.531 1.94.07.11.378-.42.447-.46-.05.06-.447.64-.457.7 0 .04.566-.38.636-.46-.139.23-.01.11.099 0-.119.16-.646.69-1.143 1.18 0 0 .079.03.109.05l1.322-1.23c-.03.04-.348.36-.288.41 0 0 .08.01.06.02.089-.05.606-.65.626-.72.01-.07-.02 0 0-.06 0-.02-.358.31-.388.34.099-.13.407-.38.258-.41.298-.28.497-.6.745-.81-.09.14-.437.53-.457.62.03-.11.676-.48.974-.77v.03c.02.03.159-.18.189-.22 0 .13.03.03.05.17 1.163-1.02.437.44.706.72.09.1.239-.41.268-.51-.03.15-.06 1.19 0 1.23-.06.01-.239-.04-.268.12-.07.41.308.26.07.95-.378.88-1.153 2.4-.765 2.89.209.26.865 1.24.467 1.47.199-.12.398 1.06.626.95 0 0 .02 0 .03-.01.129-.08-.477-1.81-.348-1.88.427-.25.05.46.189.6.517.51.745 1.89 1.749 1.8.567-.07 1.421-.05 2.028-.4.248-.14.358 1.1.775.86 0 0 .119-.31.219-.19 0 .11-.069.09-.079.13-.01.03.03.08.04.08.07-.04.288-.37.437-.54-.308.02-.567-.15-.706-.43-.368-.8.308-.64-.815-.44.179-.37.219-.76.348-1.13.398-1.11-.666.23-.606.44.099.3-.895.76-1.083.22.248-.5.795-3.48 1.58-2.83.03-.02.05-.01.06 0 .05-.15.328-.48.358-.54.03-.31.706.27.736.29-.06-.05.199.52.229.51.378-.22.07-1.9.795-2.51.388-.32.447-.71.577-.89.06-.08 0-.76.248-.92-.02.06-.189.61-.149.64.08.06.239-.63.248-.68 0-.01.03.08.04.11-.01-.05.268-.54.457-.78.01-.02.03-.04.05-.07-.02.02-.03.04-.05.06.04-.03.149-.15.169-.13-.01-.01-.04 0-.06.02.199-.19.258-.27.268-.17 0-.04.268-.2.219-.31-.03-.06-.06.06-.109.12 0-.05-.04-.08-.04-.11.03-.2.388-.57.517-.79 0 .06-.06.08-.06.13 0-.04.755-.8.825-.89-.02.04-.119.15-.119.17 0 .06.149-.09.159-.11 0 .17-.547.38-.427.67.05.11 1.392-1.6 1.093-1.43-.328.19-.407.33-.417.39 0-.04-.02-.12-.119-.27l-.338.18c.209-.08.288-.31.437-.45.099-.41-1.054.94-1.193 1.11.765-1.13 1.431-1.32 2.197-2.2.537-.31.616-1 .398-.94h.02zm-2.773-1.54a.86.86 0 0 0-.129.25c-.08-.12.05-.19.129-.25zm-.596 1c.139-.1.189-.08.298-.07-.119.07-.258.04-.308.08l.01-.01z"/><path d="M56.739 47.6l-.06.08c.01-.03.04-.05.06-.08z"/><path d="M56.48 47.87l-.01.01zm-.636-1.8c-.11.16.06-.13 0 0h0zm-2.952.84c-.04.04.13 0 0 0h0zM49.92 57.09c-.02.04.08-.15 0 0h0zm-5.685-4.86s-.02 0-.02.01c0 0 .01 0 .02-.01zm.259.96c-.31.24.06-.05 0 0h0zm1.361.23v.01c.03-.08.09-.18 0-.01zm4.404 7.9c-.24.33.09-.13 0 0h0zm-.239-3.99l-.05-.07c-.02.06-.01.09.05.07zm5.825-10.73c-.02.02-.04.03-.05.06.04-.01.06-.03.06-.05l-.01-.01zm-6.571 1.931s0 .02-.02.04c.01-.02.02-.03.02-.04zm8.071 11.929s.02-.35-.07-.3c-.298.17-.566.02-.805.71 0-.22-1.024-2.44-1.6-1.14.089-.47-.507-.34-.686-.46-.348.2-1.173.33-1.292.31-.03.1-.298.54-.288.48 0-.05-.04-.07-.04-.11s.229-.2.149-.28c-.268-.27-1.133 1.66-1.074 1.62-.099.06-.189.09-.288.11l.169.95c-.507.3-.636 2.03-.487 1.73-.119 1.12.298 1.39.785 2.27.298.54 1.809.06 1.252 1.54-.209.59.03 3.99.388 3.99-.089.07-.05.42.05.36s.02-.35.03-.45l.04-.02c.05-.03.159.55.099.64-.05.03-.07-.12-.129-.08.05-.03-.03.73.02.71-.02.01.258-.21.258-.3.03.03.099.15.07.22-.388.66.417.88.417.88v.06c-.06.02-.109 0-.109.1 0 .14 1.382-.05 1.441-.17-.189.11.179-.38.189-.41-.944.27-1.193-1.58-.924-2.17.07-.2.129.12.219-.08.06-.13-.467 0-.378-.22.07-.06.795-1 .358-.7 1.282-1.13.417-.47.427-1.3 0 .68.785-.67 1.063-1.31 0 .03 0 .04.02.03.189-.11.467-2.1.984-2.58.477-.48 1.739-4.82 1.322-4.97s-1.213.32-1.61.37l.03-.03zm-4.672-.11c-.199.43.258-.58 0 0h0zm1.103 12.3c-.099-.05 0-.16 0 0h0zm9.155-32.02c-.179.06-.358.19-.527.28l.626-.37c.149-.09-.069-.22-.229-.3.07.01.378-.07.328-.27-.01-.04-.149.04-.179.03.179-.17.239-.12.398-.33 0 .02-.06.02-.07.01.099-.06.209-.12.298-.25.05-.07-.119.01-.139 0 .278-.3.02-.21 0-.3-.03-.13.189-.11.238-.06a1.41 1.41 0 0 1 .119-.23c-.02-.15-.169.11-.229.04.01 0 .159-.04.159-.1 0-.23-.308.18-.328.19.089-.5 1.252-1.02 1.292-1.39-.01.07-.944.47-.914.44-.02.03-.02.2-.189.24.169-.28-.308.14-.328.1.06-.04.467-.32.467-.36 0-.22-1.302.72-1.332.73.03-.03.159-.11.159-.17-.02-.19-1.521 1.11-1.6 1.03 0 0-.07-.04-.07.02 0 .18.278-.13.308-.03-.119.11-.547.08-.646.3-.04.08.079.03.109.02-.04.03-.398.23-.437.27.06-.1-1.729 1.13-1.71 1.23.01.07.229-.16.248-.12.06.21-1.183.79-1.193 1.02 0 .03.248-.05.288-.05-.08.05-.248.09-.268.21-.07.47 1.322-.79 1.332-.52 0 .15-.05.02.07.12-.139.25-.06.35.04.24 0 .04-.328.47-.08.19-.02.03-.179.28-.139.3.099.05.239-.14.308-.25-.02.14.04.19.179.08 0 0-.01.07-.02.07-.199.16-.219 0-.219 0-.08-.06-.328.48-.348.53-.04.12.169-.02.308-.13-.209.32-.527.8-.338.7-.388.79.189.86.457 1.01.089.05 2.187-2.57 2.376-3.01.169.08.576-.23.805-.47.09-.08.616-.67.616-.67v-.02zm-.05-.56s-.129.13-.109.17c-.06-.03-.099-.04-.099-.05.01-.03.179-.12.209-.12zm-3.777 2.85h-.129c.03-.03.159-.09.199-.11.01 0-.02.04-.07.11z"/><path d="M63.667 39.11s.02-.02 0-.04c0 .03-.01.04 0 .04zm.894 3.47l.139-.24c0 .05-.089.21-.05.25.04-.04.079-.16.119-.18 0 .07-.179.26-.159.29.04.05.119-.15.129-.15 0 .03-.06.18-.04.21s.149-.22.149-.22c.01 0-.06.21-.06.24 0 .05.209-.13.249-.17-.02.12-.249.64-.249.53 0 .1.04.06.119.04-.03.07-.189.3-.179.32.02.06.278-.08.348-.14-.02.03-.497.51-.467.58 0-.01 1.163-.82 1.143-.94 0-.02-.119.03-.119.03.07-.18.328-.64-.05-.29-.05.08-.248-.94-.239-.9-.04-.12-.278.22-.328.17.01.01.318-.49.258-.5h-.06c-.03.02-.318.46-.398.58-.07.1-.099.14-.219.23.03.06-.03.25-.02.26h-.02zm23.597-11.46s.03.02.03 0h-.03zm-13.121 1.949s0 .02.01.03c0-.05 0-.08-.01-.03z"/><path d="M85.027 38.56c0 .15 1.71-2.19 1.193-2.61.04.03-.288.17-.288.17.378-.3-.079-.56-.229-.63-.606-.28.06-.46.06-.82a.43.43 0 0 0-.02-.11c-.04-.02-1.103.59-.964.22 0-.02.01-.05.02-.07.209-.12.328-.67.497-.68.07-.02.04.26.04.39.129-.08.746-.13.805-.13.427-.24.169.27.398.56 0 0 .686-.57.427-.75-.169-.1-.845-.87-.407-1.12.994-.58.626-1.8.477-2.52.427-.16.606 1.03.924.84.05-.03 0-.12 0-.15.03-.02.139-.04.189-.04-.099-.06-.417-.39-.447-.42.07-.06.318-.06.318-.07.01-.05-1.133-.64-1.183-.61-.099.09.129.12.149.13-.099.2.04-.01.03.28-.268-.14-.636-.22-.875.06 0-.1-.179-.19-.199-.09 0 .06.149.03.119.1s-.169-.06-.179-.06c0 0-.03.15-.219.19.338-.74 1.034-2.25 1.69-1.98-.04.03-.08.07-.109.12 0 .15.587-.37.587-.38.01-.21 0-.28-.02-.3.03-.03.089-.11.199-.34-.079.17.527.05.487-.26 0-.06-.139-.03-.179-.07.149-.01.249.02.348.13-.02.01-.298.77-.338.85.02-.03 1.093 1.13 1.074 1.1.079.1.209-.58.099-.72.01 0 .159-.13.189-.13-.04-.03-.209-.06-.189-.12 0-.02.239-.46.109-.5v-.05c-.089-.15-.835.01-.716-.34.129-.33.656-.39.934-.56-.288.17.795-1.35.696-.93.079-.32-.656.05-.746-.06.07-.02.268-.12.268-.26 0-.05-.219-.07-.199-.08.01 0 .06.03.06-.04.07.14 1.282-.33 1.302-.4 0-.04-.199-.07-.219-.08.03-.04.159-.07.139-.14-.089 0-.805-.02-.895.22.04.02.09.04.139.04-.984.29-1.849.45-2.863.94.03.01.338.08.338.06-.149.35-3.439 1.39-4.075 1.71 0-.04.099-.07.109-.09v-.02l-.706.36c0 .02.07.01.08.01-.03.02-.179.1-.189.14 0-.07.258.02.258.03-.268.18-.567.23-.964.46-.04.03.03.18.04.22-.139.03-1.451-.07-1.551.34-.02.06.139.04.159.07-.477 0-1.352.86-1.65.75.03-.03.189-.12.189-.19 0-.16-.407.33-.397.34 0 .06.109-.03.139-.06-.03.12-.477.3-.477.44 0-.19.636-.66.606-.81-.079-.47-1.819.8-1.749.78-.308.11-.427.37-.746.48-.079.07-.875.73-.875.84 0 .03.268-.11.318-.11-.139.2-.696.37-.716.58 0 .12.487-.05.487-.01-.04.07-.537.22-.616.22.02-.03.119-.08.129-.1.07-.22-.338.32-.298.28.079 0 .139-.09.219-.09-.04.04-.249.1-.258.18v.02c-.109 0-.219 0-.249-.03-.01.11-.05.32-.07.3 0 0 0 .01.01.02-.298-.28-.755-.32-.805.49l.199.06c-.129.37.368-.19.288.19-.149.05-1.471.37-1.471.48a3.84 3.84 0 0 0 .427-.03c.01.29-.239.11-.298.1-.05.06-.338.39-.567.56-.05-.11.06-.08.06-.17s-1.093 1.23-1.163.98c.05-.12.159-.09.199-.19-.119 0-.388.11-.457.09-.04.07.219.29.219.25-.01.05-.05.12-.03.16-.418-.11-.418.46-.447.54-.099.24-.437.02-.537.27-.03.08.229.02.248.04-.298.35-.626-.05-.795-.11.248-.24 1.71-.72.815-.74-.507-.05-.904.25-1.332.44.02-.02.189-.18.189-.21-.03-.17-.378.2-.398.2l.07-.15c-.099-.07-.189.18-.248.25l-.02-.02c0 .04-.03.11-.169.2.01-.04.129-.22.099-.25l-.547.41c.02 0 .09 0 .099.02-.179.08-.189.11-.318.29.02-.33-.189.13-.229.26-.099-.16-.109.04-.159.15-.07-.2-.328.24-.507.43v.06c.03.02.239-.24.288-.28.02.65-1.074 1.54-1.083 1.77 0-.1-.616.91-.249.84-.129.35.606.15.736-.41.209.63.119.52.079.97 0 .03.07.02.09.01.537-.31.716-1.17 1.053-1.75.02-.04-.507-.18-.129-.6l.706-.76c-.219.29-.497.8-.278.93s.825-.35 1.213-.52c-.199.17-1.093.72-1.123 1.02 0-.02.05.08.05.09.04-.03.398-.41.348-.3-.01.1.02.16 0 .25-.378.35-1.262 1.81-1.938 1.81-.209.3 0-.76-.04-.79-.338-.21-.258.95-.258.96 0 .04-1.6 1.87-1.68 1.91.328-.19-.437.68-.487.63.06.23 1.232.38-.139 1.18-.825.48-.686 1.11-.706 1.97.278-.09 1.729-.76 1.491-1.42-.139-.4 1.69-2.6 1.69-1.81 0 .04.785-.02.785.12.02.46-.388.7-.388.78 0 .91.964-.95.795-1.03.06 0 .139.05.179.03.119-.22-1.014-.22-1.014-.55 0-.42.437-.22.437-.17 0 .09 1.421.94 1.551.66l.079-.18c-.06-.01-.457-.29-.378-.33.07-.04.646-.59.656-.37 0 .04-.139.32-.119.37.07.15.169-.19.159-.19a1.21 1.21 0 0 1-.139.39c.04-.02.199-.05.219-.07 0 .03-.149.18.05.15a.75.75 0 0 0-.109.24c.099-.14.099-.15.189-.25 0 .04-.079.06-.099.14a.28.28 0 0 1 .119.08c.04-.07.06-.2.079-.23 0 .18 1.222-.55 1.222-.73.219 1.17-.616 1.8-1.56 2.15-.139.05-1.71.79-1.262.98-.298-.13-.984-.09-1.312.01-.298.08.139-.66.02-.81-.328-.41-3.032 2.45-3.33 2.84-.348.46-1.222 2.53-1.431 3.19-.069.29-.358 2.34-.189 2.47.298.2.586.66.964.92.676.64 1.7-.76 2.525-1.36.209-.15 1.62-.32 1.153.47-.268.5.507 1.73.646 2.1.328.79-.547 2.03.08 2.76.437.48.437 2 .785 2.44.268.33.885-.4 1.362-.68 1.073-.62 1.392-3.35 1.65-3.97-.089-.59.994-1.76.994-2.85 0-.19-.557-1.76.089-2.13.606-.35 1.849-3.74 1.799-4.2-.01-.13-1.252.62-1.511.77.338-.52-2.067-2.19-1.928-3.18.05.08.199.38.318.31.05-.03.07-.32.08-.39.03.46 2.008 2.55 1.908 2.74.646-1.22 2.614-2.38 2.564-3.74 0 .08-.914-.35-.726-.46-.229.13-.358.72-.696.91-.219.13.04-.56-.199-.42-.06.03-.04.23-.05.25.02-.01-.885-.71-.308-.94.109-.05.775.7 1.064.16.229-.45 2.266-.32 2.704-.68-.05.15-.239.24-.258.28-.03.12.417.32.567-.05.099.85 1.392 2.96 1.521 1.92.02-.21-.089-1.46.219-1.77.238-.24.984-1.56 1.053-1.99 0 .2.308-.09.328-.24.05.13.229-.11.229-.19.129.51.805 1.24 1.053.8.398-.73.517 1.79.437 1.84.03-.02.04-.15.05-.17.02.02.089.19.099.19 0 0 .805 1.33 1.054.88.109-.19-1.62-2.05-.865-2.49.209-.12.915.63.895.67 1.342-1.67-.745-2.63.527-3.37.01.01 0 .26.03.31-.079-.15.497-.62.547-.77l.01.04zm-9.462-5.5s-.04.02-.07.03c.09-.05.159-.1.07-.03zm-.567 1.27c.338-.2.278-.57.07-.82.129.09.338.03.547-.06 0 0-.209.15-.229.2-.02.07.179.71-.398.68h.01zm.646-.89c.149-.06.268.12.278.12-.079.05-.169-.12-.278-.12zm8.27-5.36c.08-.09.189-.2 0 0h0z"/><path d="M85.365 34.49s-.01-.03-.01-.07c-.03.02-.04.04.01.07zM69.66 43.74zm.388.28s-.03.05-.05.06c.05-.01.06-.04.05-.06zm21.32-2.37s.388-.24.07-.23c-.139 0-1.859-.55-1.948.26-.03.28-.646-.14-.954.19-.01 0-.02.06-.03.09.119.01.288.19.467.07-.09.07-.219.15-.239.21.03-.06.159.23.179.22.079-.04.109-.23.139-.3 0 .4.606.18.606.84 0 .25 1.352-.8.994-.59.507-.69.716.19 1.252-.12.02 0 .099-.17.099-.19 0-.16-.795-.06-.636-.44v-.01z"/><path d="M88.515 41.95c-.01.03 0 .02 0 0zm2.873 3.34c-.04-.21-.04-.33-.04-.47 0-.2-.726-.84-.696-.94-.03-.06-.079-.92-.119-.89-.159.09-.477 2.19-.666 2.08-.219-.12-.527-.06-.716-.25-.07-.08.418-.77.338-.81l-.07-.08c-.099.06-.03.18-.099.22-.01 0-.04-.12-.02-.14-.278.16-.477.11-.696.23-.08.04.139.1.109.17 0 0-.964 1.12-.567.92-.069.21-.199.05-.268.27-.05-.73-.676.53-.726.72-.05.03-.09-.02-.119 0-.099.06.02.22.02.24-.109.02-.03 0-.079.15-.03-.05-.02-.2-.05-.23-.527 1.02-.994 1.52-1.749 2.42 0-.02.03-.19 0-.17-.06.35-.04.77-.099 1.05 0 .03-.04.06-.05.08 0-.02-.02-.11-.05-.1-.119.04.04.17-.04.22-.01-.03-.04-.24-.09-.21.09-.05.149 1.37.109 1.54-.199.95-.149.62.586.08.656-.49 1.213-1.25 1.908-1.66.219-.13.358-.12.457-.07.119.66.229 1.29.855 1.39.169.03.447-.16.586-.43l.189-.39c.477-.28 2.395-3.92 2.336-4.68.02.22-.487-.61-.487-.29v.03z"/></g></svg>