<svg width="124" height="101" viewBox="0 0 124 101" fill="none" xmlns="http://www.w3.org/2000/svg">
<path d="M114.4 20.8C116.609 20.8 118.4 19.0098 118.4 16.8C118.4 14.5913 116.609 12.8 114.4 12.8C112.191 12.8 110.4 14.5913 110.4 16.8C110.4 19.0098 112.191 20.8 114.4 20.8Z" fill="#B7CDC4"/>
<path d="M120.8 4.8C122.126 4.8 123.2 3.72516 123.2 2.40003C123.2 1.07403 122.126 0 120.8 0C119.475 0 118.4 1.07403 118.4 2.40003C118.4 3.72516 119.475 4.8 120.8 4.8Z" fill="#B7CDC4"/>
<path d="M28 10.4C29.326 10.4 30.4 9.32598 30.4 7.99998C30.4 6.67483 29.326 5.59998 28 5.59998C26.6749 5.59998 25.6 6.67483 25.6 7.99998C25.6 9.32598 26.6749 10.4 28 10.4Z" fill="#B7CDC4"/>
<path d="M4.8 68.8C7.45108 68.8 9.6 66.6492 9.6 64C9.6 61.3508 7.45108 59.2 4.8 59.2C2.14892 59.2 0 61.3508 0 64C0 66.6492 2.14892 68.8 4.8 68.8Z" fill="#B7CDC4"/>
<path d="M67.2 100.8C93.7089 100.8 115.2 79.3515 115.2 52.8005C115.2 26.2487 93.6142 4.80005 67.2 4.80005C40.6911 4.80005 19.2 26.2487 19.2 52.8005C19.2 79.3515 40.6911 100.8 67.2 100.8Z" fill="#B7CDC4"/>
<path d="M82.5714 58.4298L81.9153 58.0498L93.8825 54.9398L94.5385 55.3198L82.5714 58.4298Z" fill="white"/>
<path d="M82.5813 61.84L81.9253 61.46L81.9153 58.05L82.5714 58.43L82.5813 61.84Z" fill="white"/>
<path d="M67.5928 75.3704L66.9368 74.9804L66.9269 71.5804L67.5829 71.9604L67.5928 75.3704Z" fill="white"/>
<path d="M67.5829 71.96L66.9269 71.58L81.9157 58.05L82.5717 58.43L67.5829 71.96Z" fill="white"/>
<path d="M94.5388 55.32L93.8828 54.94L93.7735 17L94.4295 17.39L94.5388 55.32Z" fill="white"/>
<path d="M52.5742 79.2701L52.5642 75.8601L67.5829 71.9601L67.5928 75.3701L52.5742 79.2701Z" fill="white"/>
<path d="M52.5641 75.8604L51.9081 75.4804L66.9267 71.5804L67.5827 71.9604L52.5641 75.8604Z" fill="white"/>
<path d="M52.574 79.2697L51.918 78.8897L51.9081 75.4797L52.5641 75.8597L52.574 79.2697Z" fill="white"/>
<path d="M82.4623 20.49L81.8063 20.11L93.7735 17L94.4295 17.39L82.4623 20.49Z" fill="#73D19C"/>
<path d="M82.5716 58.4294L81.9156 58.0494L81.8063 20.1094L82.4623 20.4894L82.5716 58.4294Z" fill="#73D19C"/>
<path d="M82.462 20.4899L94.4292 17.3899L94.5386 55.3199L82.5714 58.4299L82.462 20.4899Z" fill="#73D19C"/>
<path d="M82.4521 17.0897L97.4708 13.1797L97.6 57.9397L82.5814 61.8397L82.5714 58.4297L94.5386 55.3197L94.4293 17.3897L82.5118 20.4797L82.4521 17.0897Z" fill="white"/>
<path d="M82.4522 17.09L81.7961 16.7L96.8148 12.8L97.4708 13.18L82.4522 17.09Z" fill="white"/>
<path d="M82.5118 20.48L81.8558 20.09L81.7961 16.7L82.4522 17.09L82.5118 20.48Z" fill="white"/>
<path d="M40.6166 86.6397L39.9606 86.2597L51.9079 75.4797L52.5639 75.8597L40.6166 86.6397Z" fill="white"/>
<path d="M67.5827 71.9599L66.9267 71.5799L66.8174 33.6399L67.4734 34.0199L67.5827 71.9599Z" fill="#73D19C"/>
<path d="M67.5827 71.9599L66.9267 71.5799L66.8174 33.6399L67.4734 34.0199L67.5827 71.9599Z" fill="white"/>
<path d="M82.4623 20.4906L82.5716 58.4306L67.5828 71.9606L67.4735 34.0206L82.4623 20.4906Z" fill="#73D19C"/>
<path d="M67.4734 34.0194L66.8174 33.6394L81.8062 20.1094L82.4622 20.4894L67.4734 34.0194Z" fill="#73D19C"/>
<path d="M67.4633 30.61L66.8073 30.23L81.7961 16.7L82.4521 17.09L67.4633 30.61Z" fill="white"/>
<path d="M67.4732 34.0197L66.8172 33.6397L66.8073 30.2297L67.4633 30.6097L67.4732 34.0197Z" fill="white"/>
<path d="M82.4522 17.0898L82.4622 20.4898L67.4734 34.0198L67.5827 71.9598L82.5715 58.4298L82.5815 61.8398L67.5927 75.3698L67.5827 71.9598L67.4734 34.0198L67.4634 30.6098L82.4522 17.0898Z" fill="white"/>
<path d="M52.4548 37.9199L51.7988 37.5399L66.8174 33.6399L67.4734 34.0199L52.4548 37.9199Z" fill="#73D19C"/>
<path d="M52.5641 75.8606L51.9081 75.4807L51.7988 37.5406L52.4548 37.9207L52.5641 75.8606Z" fill="#73D19C"/>
<path d="M52.4548 37.9195L67.4734 34.0195L67.5827 71.9595L52.5641 75.8595L52.4548 37.9195Z" fill="#73D19C"/>
<path d="M52.4449 34.5197L51.7889 34.1297L66.8075 30.2297L67.4635 30.6097L52.4449 34.5197Z" fill="white"/>
<path d="M52.4548 37.9196L51.7988 37.5396L51.7889 34.1296L52.4449 34.5196L52.4548 37.9196Z" fill="white"/>
<path d="M52.4449 34.5194L67.4635 30.6094L67.4734 34.0194L52.4548 37.9194L52.4449 34.5194Z" fill="white"/>
<path d="M40.6169 86.6395L39.9609 86.2595L39.8516 48.3195L40.5175 48.7095L40.6169 86.6395Z" fill="#73D19C"/>
<path d="M40.5175 48.7106L39.8516 48.3207L51.7989 37.5406L52.4549 37.9207L40.5175 48.7106Z" fill="#73D19C"/>
<path d="M52.4548 37.9203L52.5641 75.8603L40.6168 86.6403L40.5174 48.7103L52.4548 37.9203Z" fill="#73D19C"/>
<path d="M37.456 48.0396L36.8 47.6596L51.7888 34.1296L52.4448 34.5196L37.456 48.0396Z" fill="white"/>
<path d="M37.5852 92.8002L36.9292 92.4102L36.8 47.6602L37.456 48.0402L37.5852 92.8002Z" fill="white"/>
<path d="M52.4448 34.5195L52.4547 37.9195L40.5174 48.7095L40.6168 86.6395L52.5641 75.8595L52.574 79.2695L37.5852 92.7995L37.456 48.0395L52.4448 34.5195Z" fill="white"/>
<path d="M54.3234 59.0694C54.3234 59.0694 54.1643 59.2194 54.1445 59.2294C54.1445 59.2394 54.1643 59.2594 54.1743 59.2594C54.2836 59.1994 54.3433 59.1294 54.3234 59.0594V59.0694Z" fill="white"/>
<path d="M52.8822 59.55C52.8822 59.55 52.8622 59.57 52.8822 59.57C52.8822 59.55 52.8822 59.54 52.8822 59.55Z" fill="white"/>
<path d="M51.1925 61.42C51.2422 61.42 51.3018 61.41 51.3515 61.4C51.3515 61.38 51.3515 61.36 51.3515 61.34C51.3515 61.28 51.282 61.34 51.2024 61.42H51.1925Z" fill="white"/>
<path d="M56.8878 47.4904C56.8878 47.4904 56.9773 47.4104 56.9972 47.3704C56.9972 47.3504 56.8878 47.3004 56.8978 47.2704C56.1125 47.7704 56.9972 46.3604 56.4902 46.3304C56.5002 46.3304 55.715 47.5104 55.7547 47.1604C55.7547 47.1804 55.6752 46.8304 55.7845 46.6604C55.705 46.6904 55.5659 46.7104 55.5559 46.7204C55.7845 46.4404 55.1683 46.6404 55.0093 46.7804C54.5023 46.9904 54.4427 48.4304 54.0252 48.8904C53.5978 49.3604 53.5879 49.8404 53.3096 50.2004C52.922 50.6904 53.3096 49.3304 53.3295 49.3604C53.25 49.2704 52.3256 49.5004 52.0771 49.6504C52.097 49.6204 52.2262 49.2204 52.2063 49.2104C52.1566 49.1804 52.0672 49.3204 52.0075 49.3004C51.8982 49.2704 53.1307 47.5804 53.1804 47.6404C53.1207 47.5704 52.922 47.7804 52.8623 47.7004C53.4488 47.5704 53.6873 47.0304 54.1843 46.5404C54.0153 46.8204 53.8463 47.1004 53.6972 47.3304C53.7966 47.2504 54.5123 46.9604 54.6614 46.7304C54.562 46.8804 54.393 46.3904 54.2936 46.4404C54.2638 46.4604 54.2737 46.6004 54.2141 46.6504C54.2539 46.5604 54.2837 46.4704 54.2042 46.5104C54.2042 46.4904 54.2042 46.4504 54.2042 46.4404C54.3831 46.3004 54.3533 46.5404 54.4825 46.4604C54.552 46.4204 54.4328 46.3504 54.4328 46.3404C54.562 46.1104 55.2975 45.5904 55.1186 45.2604C55.1087 45.2404 55.7647 44.9804 55.6851 44.7404C55.7547 44.8004 55.8442 44.9104 55.9436 44.8304C55.9436 44.9304 55.7547 44.9104 55.7647 45.0504C55.7647 45.0904 55.9933 44.9504 56.0231 44.9204C56.0231 45.0204 55.9038 45.1404 55.9138 45.1604C55.9535 45.3604 56.0827 44.9504 56.0827 44.9404C56.1026 44.9904 56.1125 44.9404 56.1622 44.9404C56.1026 45.2304 55.7746 45.4904 55.7746 45.6904C55.6255 45.8804 55.0888 45.9904 55.0291 46.3204C55.0888 45.9804 56.1821 46.2704 56.4107 46.1404C56.5598 46.0504 56.2219 45.8604 56.2219 45.8404C56.3909 45.7404 56.5201 45.9604 56.6493 45.8904C56.7686 45.8204 56.6493 45.6404 56.7089 45.5704C56.7089 45.5704 56.7089 45.5704 56.7189 45.5604C56.7387 45.5904 56.7387 45.6304 56.7884 45.6004C56.7089 45.6504 56.8083 45.3604 56.8381 45.3304C56.7984 45.2804 56.5598 45.2104 56.5698 45.2004C56.5996 45.0904 57.2457 44.9804 57.5538 44.4304C57.4941 44.4304 56.868 44.4504 56.868 44.4404C56.868 44.3704 57.1761 44.1904 57.1761 44.1304C57.1761 44.1104 57.0568 44.1604 57.0369 44.1604C57.0369 44.1504 57.0369 44.1404 57.0369 44.1304C57.0667 44.1204 57.1363 44.1104 57.1562 44.0604C57.2158 43.9004 57.017 44.0604 56.9773 44.0904C57.017 43.9304 56.6791 43.8004 56.53 44.1304C56.4704 44.0004 56.361 44.0404 56.3113 43.9704C56.3511 43.6904 55.8839 43.9904 55.8839 44.0904C55.9038 44.3304 56.1225 43.9804 56.202 44.0104C56.2219 44.0104 55.7249 44.4304 55.7249 44.4204C55.7249 44.3704 55.8939 44.1404 55.8839 44.0504C55.8839 43.9304 55.0689 44.6404 55.0291 44.8604C55.0291 44.9204 55.1484 44.8204 55.1484 44.8704L55.0788 44.9504C54.7508 45.0604 55.4367 44.2504 55.4367 44.2604C55.3969 44.1204 54.4228 45.0504 54.4228 45.3304C54.4228 45.3304 54.6713 45.2104 54.7111 45.2104C54.6813 45.2304 54.393 45.3504 54.4029 45.4304C54.4328 45.5904 55.1385 45.1704 55.1385 45.1704C55.1385 45.1704 55.0788 45.2504 55.0788 45.2604C54.89 45.5104 54.6514 45.7804 54.3831 46.0204C54.3731 46.0204 54.4328 45.9304 54.4328 45.9104C54.4328 45.9104 54.224 46.2204 54.1545 46.2904C54.1545 46.2704 54.1246 46.2204 54.0948 46.2204C54.0948 46.2204 54.4725 45.6604 54.2042 45.8204C54.1843 45.8304 54.1545 45.8604 54.1246 45.9004C54.1246 45.7504 53.8563 45.9904 53.8463 45.9804C53.9457 45.8404 54.2042 45.4904 53.9457 45.4904C54.0948 45.3604 54.731 44.8404 54.8105 44.6304C54.7807 44.7204 53.5084 45.6704 53.3692 46.1404C53.3096 46.3204 53.5581 46.1504 53.578 46.1404C53.578 46.1704 53.5978 46.1604 53.6177 46.1604C53.5283 46.2504 53.1307 46.6904 53.1307 46.8404C53.1307 46.8504 53.0611 46.9104 53.0611 46.9104C53.0512 46.9104 53.0313 46.9004 53.0214 46.9104C53.0313 46.8704 53.1804 46.6504 53.1804 46.6504C53.1804 46.6204 53.0412 46.7304 53.0214 46.7004C53.0214 46.7104 53.4289 46.3104 53.4488 46.2604C53.4985 46.1104 52.7629 46.6004 52.7927 46.7404C52.8126 46.8004 52.9319 46.6504 52.9617 46.6704C52.7232 47.0004 52.4449 47.2604 52.0175 47.3404C52.2759 47.1004 51.5602 47.3404 51.4907 47.6004C51.4907 47.5904 51.5901 47.7504 51.4608 47.9204C51.4608 47.9204 51.4112 47.9404 51.4012 47.9304C51.4211 47.8704 51.4012 47.7604 51.2919 47.8304C51.3018 47.8104 51.4112 47.7104 51.4112 47.7004C51.4112 47.6804 50.6955 48.2704 50.5862 48.2404C50.5862 48.1504 50.9042 48.0404 50.8545 47.9504C50.7054 47.7304 49.95 48.3504 49.7214 48.4304C49.7314 48.4104 49.7413 48.4004 49.7612 48.3904C49.7711 48.3904 49.8606 48.2304 49.8606 48.2204C49.8407 48.1004 49.4729 48.6304 49.4729 48.5604C49.4729 48.5604 49.5226 48.3504 49.5127 48.3304C49.5127 48.3304 49.4531 48.3304 49.4431 48.3304C49.463 48.3204 49.1946 48.7304 49.1648 48.6504C49.1648 48.6504 49.2046 48.6104 49.2145 48.5804C48.8766 48.9704 43.877 51.1504 43.9565 52.0004C43.9565 52.0704 44.0957 52.2804 44.2149 52.0904C44.2149 52.2904 43.8869 52.5004 43.8074 52.5204C43.8273 52.5004 43.9167 52.3904 43.9068 52.3604C43.9068 52.3804 43.062 52.9704 43.062 53.0804C43.062 53.1304 43.1912 53.0604 43.211 53.0504C43.1912 53.0604 43.0321 53.2304 43.0321 53.2904C43.0421 53.4004 43.539 53.0604 43.7577 52.8604C43.2806 53.3604 42.0183 54.4104 42.227 54.8004C42.2966 54.9104 42.6047 54.3804 42.6743 54.3404C42.6246 54.4004 42.227 54.9804 42.2171 55.0404C42.2171 55.0804 42.7836 54.6604 42.8532 54.5804C42.7141 54.8104 42.8433 54.6904 42.9526 54.5804C42.8333 54.7404 42.3065 55.2704 41.8096 55.7604C41.8096 55.7604 41.8891 55.7904 41.9189 55.8104C42.4855 55.2904 43.1017 54.7104 43.2409 54.5804C43.211 54.6204 42.893 54.9404 42.9526 54.9904C42.9526 54.9904 43.0321 55.0004 43.0123 55.0104C43.1017 54.9604 43.6186 54.3604 43.6384 54.2904C43.6484 54.2204 43.6186 54.2904 43.6384 54.2304C43.6384 54.2104 43.2806 54.5404 43.2508 54.5704C43.3502 54.4404 43.6583 54.1904 43.5092 54.1604C43.8074 53.8804 44.0062 53.5604 44.2547 53.3504C44.1652 53.4904 43.8174 53.8804 43.7975 53.9704C43.8273 53.8604 44.4734 53.4904 44.7715 53.2004C44.7715 53.2104 44.7715 53.2304 44.7715 53.2304C44.7914 53.2604 44.9306 53.0504 44.9604 53.0104C44.9604 53.1404 44.9902 53.0404 45.0101 53.1804C46.173 52.1604 45.4474 53.6204 45.7158 53.9004C45.8053 54.0004 45.9544 53.4904 45.9842 53.3904C45.9544 53.5404 45.9245 54.5804 45.9842 54.6204C45.9245 54.6304 45.7456 54.5804 45.7158 54.7404C45.6462 55.1504 46.0239 55.0004 45.7854 55.6904C45.4077 56.5704 44.6324 58.0904 45.02 58.5804C45.2288 58.8404 45.8848 59.8204 45.4872 60.0504C45.686 59.9304 45.8848 61.1104 46.1134 61.0004C46.1134 61.0004 46.1333 61.0004 46.1432 60.9904C46.2724 60.9104 45.6661 59.1804 45.7953 59.1104C46.2227 58.8604 45.845 59.5704 45.9842 59.7104C46.501 60.2204 46.7296 61.6004 47.7335 61.5104C48.3001 61.4404 49.1549 61.4604 49.7612 61.1104C50.0097 60.9704 50.119 62.2104 50.5365 61.9704C50.5365 61.9704 50.6557 61.6604 50.7551 61.7804C50.7551 61.8904 50.6856 61.8704 50.6756 61.9104C50.6657 61.9404 50.7054 61.9904 50.7154 61.9904C50.785 61.9503 51.0036 61.6204 51.1527 61.4504C50.8446 61.4704 50.5862 61.3004 50.447 61.0204C50.0793 60.2204 50.7551 60.3804 49.632 60.5804C49.8109 60.2104 49.8506 59.8204 49.9799 59.4504C50.3774 58.3404 49.3139 59.6804 49.3735 59.8904C49.4729 60.1904 48.479 60.6504 48.2901 60.1104C48.5386 59.6104 49.0853 56.6304 49.8705 57.2804C49.9003 57.2604 49.9202 57.2704 49.9302 57.2804C49.9799 57.1304 50.2582 56.8004 50.288 56.7404C50.3178 56.4304 50.9937 57.0104 51.0235 57.0304C50.9639 56.9804 51.2223 57.5504 51.2521 57.5404C51.6298 57.3204 51.3217 55.6404 52.0473 55.0304C52.4349 54.7104 52.4946 54.3204 52.6238 54.1404C52.6834 54.0604 52.6238 53.3804 52.8723 53.2204C52.8524 53.2804 52.6834 53.8304 52.7232 53.8604C52.8027 53.9204 52.9617 53.2304 52.9717 53.1804C52.9717 53.1704 53.0015 53.2604 53.0114 53.2904C53.0015 53.2404 53.2798 52.7504 53.4686 52.5104C53.4686 52.5104 53.4587 52.5104 53.4488 52.5104C53.4786 52.4904 53.4985 52.4704 53.5183 52.4404C53.4985 52.4604 53.4885 52.4804 53.4686 52.5004C53.5084 52.4704 53.6177 52.3504 53.6376 52.3704C53.6277 52.3604 53.5978 52.3704 53.578 52.3904C53.7768 52.2004 53.8364 52.1204 53.8463 52.2204C53.8463 52.1804 54.1147 52.0204 54.065 51.9104C54.0352 51.8504 54.0054 51.9704 53.9557 52.0304C53.9557 51.9804 53.9159 51.9504 53.9159 51.9204C53.9457 51.7204 54.3036 51.3504 54.4328 51.1304C54.4328 51.1904 54.3731 51.2104 54.3731 51.2604C54.3731 51.2204 55.1285 50.4604 55.1981 50.3704C55.1782 50.4104 55.0788 50.5204 55.0788 50.5404C55.0788 50.6004 55.2279 50.4504 55.2379 50.4304C55.2379 50.6004 54.6912 50.8104 54.8105 51.1004C54.8602 51.2104 56.202 49.5004 55.9038 49.6704C55.5758 49.8604 55.4963 50.0004 55.4864 50.0604C55.4864 50.0204 55.4665 49.9404 55.3671 49.7904C55.3671 49.7904 55.059 49.9704 55.0291 49.9704C55.0291 49.9704 55.0291 49.9704 55.0291 49.9604C55.2379 49.8904 55.3174 49.6604 55.4665 49.5204C55.5659 49.1104 54.4129 50.4604 54.2737 50.6304C55.0391 49.5004 55.705 49.3104 56.4704 48.4304C57.0071 48.1204 57.0866 47.4304 56.868 47.4904H56.8878ZM54.1147 45.9504C54.0551 46.0404 53.9954 46.1404 53.9855 46.2004C53.906 46.0804 54.0352 46.0104 54.1147 45.9504ZM53.5183 46.9504C53.6575 46.8504 53.7072 46.8704 53.8165 46.8804C53.6972 46.9504 53.5581 46.9204 53.5084 46.9604L53.5183 46.9504Z" fill="white"/>
<path d="M56.739 47.6C56.739 47.6 56.699 47.65 56.679 47.68C56.689 47.65 56.719 47.63 56.739 47.6Z" fill="white"/>
<path d="M56.4804 47.8703L56.4704 47.8803C56.4704 47.8803 56.4704 47.8803 56.4804 47.8703Z" fill="white"/>
<path d="M55.8444 46.0697C55.7344 46.2297 55.9044 45.9397 55.8444 46.0697V46.0697Z" fill="white"/>
<path d="M52.8922 46.9102C52.8522 46.9502 53.0222 46.9102 52.8922 46.9102V46.9102Z" fill="white"/>
<path d="M49.9202 57.0899C49.9002 57.1299 50.0002 56.9399 49.9202 57.0899V57.0899Z" fill="white"/>
<path d="M44.2348 52.2297C44.2348 52.2297 44.2148 52.2297 44.2148 52.2397C44.2148 52.2397 44.2248 52.2397 44.2348 52.2297Z" fill="white"/>
<path d="M44.4938 53.1895C44.1838 53.4295 44.5538 53.1395 44.4938 53.1895V53.1895Z" fill="white"/>
<path d="M45.855 53.4203V53.4303C45.885 53.3503 45.945 53.2503 45.855 53.4203Z" fill="white"/>
<path d="M50.2587 61.3199C50.0187 61.6499 50.3487 61.1899 50.2587 61.3199V61.3199Z" fill="white"/>
<path d="M50.0199 57.3301C50.0199 57.3301 49.9899 57.2901 49.9699 57.2601C49.9499 57.3201 49.9599 57.3501 50.0199 57.3301Z" fill="white"/>
<path d="M55.8446 46.6C55.8246 46.62 55.8046 46.63 55.7946 46.66C55.8346 46.65 55.8546 46.63 55.8546 46.61L55.8446 46.6Z" fill="white"/>
<path d="M49.2743 48.5305C49.2743 48.5305 49.2743 48.5505 49.2543 48.5705C49.2643 48.5505 49.2743 48.5405 49.2743 48.5305Z" fill="white"/>
<path d="M57.345 60.4595C57.345 60.4595 57.3649 60.1095 57.2754 60.1595C56.9772 60.3295 56.7089 60.1795 56.4703 60.8695C56.4703 60.6495 55.4465 58.4295 54.8701 59.7295C54.9595 59.2595 54.3631 59.3895 54.1842 59.2695C53.8363 59.4695 53.0114 59.5995 52.8921 59.5795C52.8623 59.6795 52.5939 60.1195 52.6038 60.0595C52.6038 60.0095 52.5641 59.9895 52.5641 59.9495C52.5641 59.9095 52.7927 59.7495 52.7132 59.6695C52.4448 59.3995 51.5801 61.3295 51.6397 61.2895C51.5403 61.3495 51.4509 61.3795 51.3515 61.3995C51.4012 61.6995 51.5503 62.3295 51.5204 62.3495C51.0135 62.6495 50.8843 64.3795 51.0334 64.0795C50.9141 65.1995 51.3316 65.4695 51.8186 66.3495C52.1168 66.8895 53.6276 66.4095 53.071 67.8895C52.8623 68.4795 53.1008 71.8795 53.4586 71.8795C53.3692 71.9495 53.4089 72.2995 53.5083 72.2395C53.6077 72.1795 53.5282 71.8895 53.5382 71.7895L53.5779 71.7695C53.6276 71.7395 53.7369 72.3195 53.6773 72.4095C53.6276 72.4395 53.6077 72.2895 53.5481 72.3295C53.5978 72.2995 53.5183 73.0595 53.568 73.0395C53.5481 73.0495 53.8264 72.8295 53.8264 72.7395C53.8562 72.7695 53.9258 72.8895 53.896 72.9595C53.5083 73.6195 54.3134 73.8395 54.3134 73.8395C54.3134 73.8595 54.3134 73.8795 54.3134 73.8995C54.2538 73.9195 54.2041 73.8995 54.2041 73.9995C54.2041 74.1395 55.5857 73.9495 55.6453 73.8295C55.4565 73.9395 55.8242 73.4495 55.8342 73.4195C54.8899 73.6895 54.6414 71.8395 54.9098 71.2495C54.9794 71.0495 55.039 71.3695 55.1285 71.1695C55.1881 71.0395 54.6613 71.1695 54.7508 70.9495C54.8204 70.8895 55.5459 69.9495 55.1086 70.2495C56.3908 69.1195 55.5261 69.7795 55.536 68.9495C55.536 69.6295 56.3212 68.2795 56.5995 67.6395C56.5995 67.6695 56.5995 67.6795 56.6194 67.6695C56.8083 67.5595 57.0866 65.5695 57.6034 65.0895C58.0805 64.6095 59.3428 60.2695 58.9254 60.1195C58.5079 59.9695 57.7128 60.4395 57.3152 60.4895L57.345 60.4595ZM52.6734 60.3495C52.4746 60.7795 52.9318 59.7695 52.6734 60.3495V60.3495ZM53.7767 72.6495C53.6773 72.5995 53.7767 72.4895 53.7767 72.6495V72.6495Z" fill="white"/>
<path d="M62.9309 40.6304C62.7519 40.6904 62.573 40.8204 62.4041 40.9104C62.6625 40.7504 62.6824 40.7504 63.0302 40.5404C63.1793 40.4504 62.9607 40.3204 62.8016 40.2404C62.8712 40.2504 63.1793 40.1704 63.1296 39.9704C63.1197 39.9304 62.9805 40.0104 62.9507 40.0004C63.1296 39.8304 63.1893 39.8804 63.3483 39.6704C63.3483 39.6904 63.2887 39.6904 63.2787 39.6804C63.3781 39.6204 63.4875 39.5604 63.5769 39.4304C63.6266 39.3604 63.4576 39.4404 63.4378 39.4304C63.7161 39.1304 63.4576 39.2204 63.4378 39.1304C63.4079 39.0004 63.6266 39.0204 63.6763 39.0704C63.7061 38.9904 63.7956 38.8304 63.7956 38.8404C63.7757 38.6904 63.6266 38.9504 63.567 38.8804C63.5769 38.8804 63.726 38.8404 63.726 38.7804C63.726 38.5504 63.4179 38.9604 63.398 38.9704C63.4875 38.4704 64.6504 37.9504 64.6901 37.5804C64.6802 37.6504 63.7459 38.0504 63.7757 38.0204C63.7558 38.0504 63.7558 38.2204 63.5869 38.2604C63.7558 37.9804 63.2787 38.4004 63.2589 38.3604C63.3185 38.3204 63.726 38.0404 63.726 38.0004C63.726 37.7804 62.4239 38.7204 62.3941 38.7304C62.4239 38.7004 62.5531 38.6204 62.5531 38.5604C62.5333 38.3704 61.0324 39.6704 60.9529 39.5904C60.9529 39.5904 60.8833 39.5504 60.8833 39.6104C60.8833 39.7904 61.1616 39.4804 61.1914 39.5804C61.0722 39.6904 60.6448 39.6604 60.5454 39.8804C60.5056 39.9604 60.6249 39.9104 60.6547 39.9004C60.6149 39.9304 60.2571 40.1304 60.2174 40.1704C60.277 40.0704 58.4879 41.3004 58.5078 41.4004C58.5177 41.4704 58.7364 41.2404 58.7563 41.2804C58.8159 41.4904 57.5734 42.0704 57.5635 42.3004C57.5635 42.3304 57.812 42.2504 57.8518 42.2504C57.7722 42.3004 57.6033 42.3404 57.5834 42.4604C57.5138 42.9304 58.9053 41.6704 58.9153 41.9404C58.9153 42.0904 58.8656 41.9604 58.9849 42.0604C58.8457 42.3104 58.9252 42.4104 59.0246 42.3004C59.0246 42.3404 58.6966 42.7704 58.9451 42.4904C58.9252 42.5204 58.7662 42.7704 58.8059 42.7904C58.9053 42.8404 59.0445 42.6504 59.1141 42.5404C59.0942 42.6804 59.1538 42.7304 59.293 42.6204C59.293 42.6204 59.283 42.6904 59.2731 42.6904C59.0743 42.8504 59.0544 42.6904 59.0544 42.6904C58.9749 42.6304 58.7264 43.1704 58.7066 43.2204C58.6668 43.3404 58.8755 43.2004 59.0147 43.0904C58.8059 43.4104 58.4879 43.8904 58.6767 43.7904C58.2891 44.5804 58.8656 44.6504 59.134 44.8004C59.2234 44.8504 61.3206 42.2304 61.5095 41.7904C61.6785 41.8704 62.086 41.5604 62.3146 41.3204C62.4041 41.2404 62.9309 40.6504 62.9309 40.6504V40.6304ZM62.8812 40.0704C62.8812 40.0704 62.7519 40.2004 62.7718 40.2404C62.7122 40.2104 62.6724 40.2004 62.6724 40.1904C62.6824 40.1604 62.8513 40.0704 62.8812 40.0704ZM59.1041 42.9204C59.1041 42.9204 58.9948 42.9204 58.9749 42.9204C59.0047 42.8904 59.134 42.8304 59.1737 42.8104C59.1837 42.8104 59.1538 42.8504 59.1041 42.9204Z" fill="white"/>
<path d="M63.6666 39.1096C63.6666 39.1096 63.6866 39.0896 63.6666 39.0696C63.6666 39.0996 63.6566 39.1096 63.6666 39.1096Z" fill="white"/>
<path d="M64.561 42.5801C64.561 42.5801 64.6703 42.3801 64.7001 42.3401C64.7001 42.3901 64.6107 42.5501 64.6504 42.5901C64.6902 42.5501 64.7299 42.4301 64.7697 42.4101C64.7697 42.4801 64.5908 42.6701 64.6107 42.7001C64.6504 42.7501 64.7299 42.5501 64.7399 42.5501C64.7399 42.5801 64.6802 42.7301 64.7001 42.7601C64.72 42.7901 64.8492 42.5401 64.8492 42.5401C64.8592 42.5401 64.7896 42.7501 64.7896 42.7801C64.7896 42.8301 64.9983 42.6501 65.0381 42.6101C65.0182 42.7301 64.7896 43.2501 64.7896 43.1401C64.7896 43.2401 64.8293 43.2001 64.9089 43.1801C64.879 43.2501 64.72 43.4801 64.7299 43.5001C64.7498 43.5601 65.0083 43.4201 65.0778 43.3601C65.058 43.3901 64.5809 43.8701 64.6107 43.9401C64.6107 43.9301 65.7736 43.1201 65.7537 43.0001C65.7537 42.9801 65.6344 43.0301 65.6344 43.0301C65.704 42.8501 65.9624 42.3901 65.5847 42.7401C65.535 42.8201 65.3363 41.8001 65.3462 41.8401C65.3064 41.7201 65.0679 42.0601 65.0182 42.0101C65.0281 42.0201 65.3363 41.5201 65.2766 41.5101H65.217C65.1872 41.5301 64.8989 41.9701 64.8194 42.0901C64.7498 42.1901 64.72 42.2301 64.6007 42.3201C64.6305 42.3801 64.5709 42.5701 64.5809 42.5801H64.561Z" fill="white"/>
<path d="M88.1575 31.1204C88.1575 31.1204 88.1875 31.1404 88.1875 31.1204C88.1875 31.1204 88.1775 31.1204 88.1575 31.1204Z" fill="white"/>
<path d="M75.0373 33.0694C75.0373 33.0694 75.0373 33.0894 75.0473 33.0994C75.0473 33.0494 75.0473 33.0194 75.0373 33.0694Z" fill="white"/>
<path d="M85.0266 38.5601C85.0266 38.7101 86.7362 36.3701 86.2194 35.9501C86.2591 35.9801 85.9311 36.1201 85.9311 36.1201C86.3088 35.8201 85.8516 35.5601 85.7025 35.4901C85.0962 35.2101 85.7621 35.0301 85.7621 34.6701C85.7621 34.6601 85.7522 34.5701 85.7423 34.5601C85.7025 34.5401 84.639 35.1501 84.7781 34.7801C84.7781 34.7601 84.7881 34.7301 84.798 34.7101C85.0067 34.5901 85.126 34.0401 85.295 34.0301C85.3646 34.0101 85.3347 34.2901 85.3347 34.4201C85.4639 34.3401 86.0802 34.2901 86.1398 34.2901C86.5672 34.0501 86.3088 34.5601 86.5374 34.8501C86.5374 34.8501 87.2232 34.2801 86.9648 34.1001C86.7958 34.0001 86.12 33.2301 86.5573 32.9801C87.5513 32.4001 87.1835 31.1801 87.0344 30.4601C87.4618 30.3001 87.6407 31.4901 87.9588 31.3001C88.0085 31.2701 87.9588 31.1801 87.9588 31.1501C87.9886 31.1301 88.0979 31.1101 88.1476 31.1101C88.0482 31.0501 87.7302 30.7201 87.7003 30.6901C87.7699 30.6301 88.0184 30.6301 88.0184 30.6201C88.0283 30.5701 86.8853 29.9801 86.8356 30.0101C86.7362 30.1001 86.9648 30.1301 86.9847 30.1401C86.8853 30.3401 87.0245 30.1301 87.0145 30.4201C86.7461 30.2801 86.3784 30.2001 86.1398 30.4801C86.1398 30.3801 85.9609 30.2901 85.941 30.3901C85.941 30.4501 86.0901 30.4201 86.0603 30.4901C86.0305 30.5601 85.8913 30.4301 85.8814 30.4301C85.8814 30.4301 85.8516 30.5801 85.6627 30.6201C86.0007 29.8801 86.6964 28.3701 87.3525 28.6401C87.3127 28.6701 87.2729 28.7101 87.2431 28.7601C87.2431 28.9101 87.8296 28.3901 87.8296 28.3801C87.8395 28.1701 87.8296 28.1001 87.8097 28.0801C87.8395 28.0501 87.8991 27.9701 88.0085 27.7401C87.929 27.9101 88.5353 27.7901 88.4955 27.4801C88.4955 27.4201 88.3564 27.4501 88.3166 27.4101C88.4657 27.4001 88.5651 27.4301 88.6645 27.5401C88.6446 27.5501 88.3663 28.3101 88.3265 28.3901C88.3464 28.3601 89.4199 29.5201 89.4 29.4901C89.4795 29.5901 89.6087 28.9101 89.4994 28.7701C89.5093 28.7701 89.6584 28.6401 89.6882 28.6401C89.6485 28.6101 89.4795 28.5801 89.4994 28.5201C89.4994 28.5001 89.7379 28.0601 89.6087 28.0201C89.6087 28.0101 89.6087 27.9901 89.6087 27.9701C89.5193 27.8201 88.7738 27.9801 88.8931 27.6301C89.0223 27.3001 89.5491 27.2401 89.8274 27.0701C89.5392 27.2401 90.6226 25.7201 90.5232 26.1401C90.6027 25.8201 89.8672 26.1901 89.7777 26.0801C89.8473 26.0601 90.0461 25.9601 90.0461 25.8201C90.0461 25.7701 89.8274 25.7501 89.8473 25.7401C89.8572 25.7401 89.9069 25.7701 89.9069 25.7001C89.9765 25.8401 91.1891 25.3701 91.209 25.3001C91.209 25.2601 91.0102 25.2301 90.9903 25.2201C91.0201 25.1801 91.1494 25.1501 91.1295 25.0801C91.04 25.0801 90.3244 25.0601 90.2349 25.3001C90.2747 25.3201 90.3244 25.3401 90.3741 25.3401C89.3901 25.6301 88.5253 25.7901 87.5115 26.2801C87.5413 26.2901 87.8494 26.3601 87.8494 26.3401C87.7003 26.6901 84.4104 27.7301 83.7742 28.0501C83.7742 28.0101 83.8736 27.9801 83.8836 27.9601V27.9401L83.1779 28.3001C83.1779 28.3201 83.2474 28.3101 83.2574 28.3101C83.2276 28.3301 83.0785 28.4101 83.0685 28.4501C83.0685 28.3801 83.327 28.4701 83.327 28.4801C83.0586 28.6601 82.7604 28.7101 82.3628 28.9401C82.3231 28.9701 82.3926 29.1201 82.4026 29.1601C82.2634 29.1901 80.9514 29.0901 80.852 29.5001C80.8321 29.5601 80.9912 29.5401 81.011 29.5701C80.5339 29.5701 79.6593 30.4301 79.3611 30.3201C79.3909 30.2901 79.5499 30.2001 79.5499 30.1301C79.5499 29.9701 79.1424 30.4601 79.1524 30.4701C79.1524 30.5301 79.2617 30.4401 79.2915 30.4101C79.2617 30.5301 78.8144 30.7101 78.8144 30.8501C78.8144 30.6601 79.4505 30.1901 79.4207 30.0401C79.3412 29.5701 77.6018 30.8401 77.6714 30.8201C77.3632 30.9301 77.244 31.1901 76.9259 31.3001C76.8464 31.3701 76.0512 32.0301 76.0512 32.1401C76.0512 32.1701 76.3196 32.0301 76.3693 32.0301C76.2301 32.2301 75.6735 32.4001 75.6536 32.6101C75.6536 32.7301 76.1407 32.5601 76.1407 32.6001C76.1009 32.6701 75.6039 32.8201 75.5244 32.8201C75.5443 32.7901 75.6437 32.7401 75.6536 32.7201C75.7232 32.5001 75.3157 33.0401 75.3555 33.0001C75.435 33.0001 75.4946 32.9101 75.5741 32.9101C75.5344 32.9501 75.3256 33.0101 75.3157 33.0901C75.3157 33.0901 75.3157 33.1001 75.3157 33.1101C75.2064 33.1101 75.097 33.1101 75.0672 33.0801C75.0573 33.1901 75.0175 33.4001 74.9976 33.3801C74.9976 33.3801 74.9976 33.3901 75.0076 33.4001C74.7094 33.1201 74.2522 33.0801 74.2025 33.8901C74.2025 33.8901 74.3913 33.9501 74.4013 33.9501C74.272 34.3201 74.769 33.7601 74.6895 34.1401C74.5404 34.1901 73.2185 34.5101 73.2185 34.6201C73.2185 34.6301 73.5862 34.6001 73.6459 34.5901C73.6558 34.8801 73.4073 34.7001 73.3477 34.6901C73.298 34.7501 73.0097 35.0801 72.7811 35.2501C72.7314 35.1401 72.8408 35.1701 72.8408 35.0801C72.8408 34.9901 71.7474 36.3101 71.6778 36.0601C71.7275 35.9401 71.8369 35.9701 71.8766 35.8701C71.7573 35.8701 71.489 35.9801 71.4194 35.9601C71.3796 36.0301 71.6381 36.2501 71.6381 36.2101C71.6281 36.2601 71.5884 36.3301 71.6083 36.3701C71.1908 36.2601 71.1908 36.8301 71.161 36.9101C71.0616 37.1501 70.7236 36.9301 70.6242 37.1801C70.5944 37.2601 70.8528 37.2001 70.8727 37.2201C70.5745 37.5701 70.2465 37.1701 70.0776 37.1101C70.3261 36.8701 71.7872 36.3901 70.8926 36.3701C70.3857 36.3201 69.9881 36.6201 69.5607 36.8101C69.5806 36.7901 69.7496 36.6301 69.7496 36.6001C69.7197 36.4301 69.3719 36.8001 69.352 36.8001L69.4216 36.6501C69.3222 36.5801 69.2327 36.8301 69.1731 36.9001C69.1731 36.9001 69.1631 36.8901 69.1532 36.8801C69.1532 36.9201 69.1234 36.9901 68.9842 37.0801C68.9942 37.0401 69.1134 36.8601 69.0836 36.8301C69.0836 36.8301 68.6065 37.2201 68.5369 37.2401C68.5568 37.2401 68.6264 37.2401 68.6363 37.2601C68.4574 37.3401 68.4475 37.3701 68.3183 37.5501C68.3381 37.2201 68.1294 37.6801 68.0897 37.8101C67.9903 37.6501 67.9803 37.8501 67.9306 37.9601C67.8611 37.7601 67.6026 38.2001 67.4237 38.3901C67.4237 38.4101 67.4237 38.4301 67.4237 38.4501C67.4535 38.4701 67.6623 38.2101 67.712 38.1701C67.7318 38.8201 66.6385 39.7101 66.6286 39.9401C66.6286 39.8401 66.0123 40.8501 66.3801 40.7801C66.2508 41.1301 66.9864 40.9301 67.1156 40.3701C67.3243 41.0001 67.2349 40.8901 67.1951 41.3401C67.1951 41.3701 67.2647 41.3601 67.2846 41.3501C67.8213 41.0401 68.0002 40.1801 68.3381 39.6001C68.358 39.5601 67.8312 39.4201 68.2089 39.0001C68.3978 38.7801 68.7059 38.4501 68.9146 38.2401C68.696 38.5301 68.4177 39.0401 68.6363 39.1701C68.855 39.3001 69.4613 38.8201 69.849 38.6501C69.6502 38.8201 68.7556 39.3701 68.7258 39.6701C68.7258 39.6501 68.7755 39.7501 68.7755 39.7601C68.8152 39.7301 69.1731 39.3501 69.1234 39.4601C69.1134 39.5601 69.1433 39.6201 69.1234 39.7101C68.7457 40.0601 67.8611 41.5201 67.1852 41.5201C66.9764 41.8201 67.1852 40.7601 67.1454 40.7301C66.8075 40.5201 66.887 41.6801 66.887 41.6901C66.887 41.7301 65.2867 43.5601 65.2072 43.6001C65.5352 43.4101 64.7699 44.2801 64.7202 44.2301C64.7798 44.4601 65.9527 44.6101 64.581 45.4101C63.756 45.8901 63.8952 46.5201 63.8753 47.3801C64.1536 47.2901 65.6048 46.6201 65.3662 45.9601C65.2271 45.5601 67.056 43.3601 67.056 44.1501C67.056 44.1901 67.8412 44.1301 67.8412 44.2701C67.8611 44.7301 67.4535 44.9701 67.4535 45.0501C67.4535 45.9601 68.4177 44.1001 68.2487 44.0201C68.3083 44.0201 68.3878 44.0701 68.4276 44.0501C68.5469 43.8301 67.4138 43.8301 67.4138 43.5001C67.4138 43.0801 67.8511 43.2801 67.8511 43.3301C67.8511 43.4201 69.2725 44.2701 69.4017 43.9901C69.4017 43.9901 69.4613 43.8501 69.4812 43.8101C69.4216 43.8001 69.024 43.5201 69.1035 43.4801C69.1731 43.4401 69.7496 42.8901 69.7595 43.1101C69.7595 43.1501 69.6203 43.4301 69.6402 43.4801C69.7098 43.6301 69.8092 43.2901 69.7993 43.2901C69.7993 43.3701 69.6999 43.6301 69.6601 43.6801C69.6999 43.6601 69.8589 43.6301 69.8788 43.6101C69.8788 43.6401 69.7297 43.7901 69.9285 43.7601C69.8987 43.7701 69.8191 43.9801 69.8191 44.0001C69.9185 43.8601 69.9185 43.8501 70.008 43.7501C70.008 43.7901 69.9285 43.8101 69.9086 43.8901C69.9285 43.8901 70.008 43.9401 70.0279 43.9701C70.0676 43.9001 70.0875 43.7701 70.1074 43.7401C70.1074 43.9201 71.3299 43.1901 71.3299 43.0101C71.5486 44.1801 70.7137 44.8101 69.7694 45.1601C69.6303 45.2101 68.0598 45.9501 68.5071 46.1401C68.2089 46.0101 67.5231 46.0501 67.1951 46.1501C66.8969 46.2301 67.3343 45.4901 67.215 45.3401C66.887 44.9301 64.1834 47.7901 63.8852 48.1801C63.5374 48.6401 62.6627 50.7101 62.4539 51.3701C62.3844 51.6601 62.0961 53.7101 62.2651 53.8401C62.5633 54.0401 62.8515 54.5001 63.2292 54.7601C63.9051 55.4001 64.9289 54.0001 65.7539 53.4001C65.9626 53.2501 67.374 53.0801 66.9069 53.8701C66.6385 54.3701 67.4138 55.6001 67.5529 55.9701C67.8809 56.7601 67.0063 58.0001 67.6324 58.7301C68.0698 59.2101 68.0698 60.7301 68.4177 61.1701C68.686 61.5001 69.3023 60.7701 69.7794 60.4901C70.8528 59.8701 71.1709 57.1401 71.4293 56.5201C71.3399 55.9301 72.4233 54.7601 72.4233 53.6701C72.4233 53.4801 71.8667 51.9101 72.5127 51.5401C73.1191 51.1901 74.3615 47.8001 74.3118 47.3401C74.3019 47.2101 73.0594 47.9601 72.801 48.1101C73.1389 47.5901 70.7336 45.9201 70.8727 44.9301C70.9224 45.0101 71.0715 45.3101 71.1908 45.2401C71.2405 45.2101 71.2604 44.9201 71.2703 44.8501C71.3001 45.3101 73.2781 47.4001 73.1787 47.5901C73.8248 46.3701 75.7928 45.2101 75.7431 43.8501C75.7431 43.9301 74.8287 43.5001 75.0175 43.3901C74.7889 43.5201 74.6597 44.1101 74.3217 44.3001C74.1031 44.4301 74.3615 43.7401 74.123 43.8801C74.0633 43.9101 74.0832 44.1101 74.0733 44.1301C74.0931 44.1201 73.1886 43.4201 73.7651 43.1901C73.8745 43.1401 74.5404 43.8901 74.8287 43.3501C75.0573 42.9001 77.0949 43.0301 77.5322 42.6701C77.4825 42.8201 77.2937 42.9101 77.2738 42.9501C77.244 43.0701 77.6912 43.2701 77.8403 42.9001C77.9397 43.7501 79.2319 45.8601 79.3611 44.8201C79.381 44.6101 79.2716 43.3601 79.5798 43.0501C79.8183 42.8101 80.5638 41.4901 80.6333 41.0601C80.6333 41.2601 80.9415 40.9701 80.9613 40.8201C81.011 40.9501 81.19 40.7101 81.19 40.6301C81.3192 41.1401 81.9951 41.8701 82.2435 41.4301C82.6411 40.7001 82.7604 43.2201 82.6809 43.2701C82.7107 43.2501 82.7206 43.1201 82.7306 43.1001C82.7505 43.1201 82.82 43.2901 82.83 43.2901C82.83 43.2901 83.6351 44.6201 83.8836 44.1701C83.9929 43.9801 82.2634 42.1201 83.0188 41.6801C83.2276 41.5601 83.9333 42.3101 83.9134 42.3501C85.2552 40.6801 83.1679 39.7201 84.4402 38.9801C84.4501 38.9901 84.4402 39.2401 84.47 39.2901C84.3905 39.1401 84.967 38.6701 85.0167 38.5201L85.0266 38.5601ZM75.5642 33.0601C75.5642 33.0601 75.5244 33.0801 75.4946 33.0901C75.5841 33.0401 75.6536 32.9901 75.5642 33.0601ZM74.9976 34.3301C75.3356 34.1301 75.2759 33.7601 75.0672 33.5101C75.1964 33.6001 75.4051 33.5401 75.6139 33.4501C75.6139 33.4501 75.4052 33.6001 75.3853 33.6501C75.3654 33.7201 75.5642 34.3601 74.9877 34.3301H74.9976ZM75.6437 33.4401C75.7928 33.3801 75.9121 33.5601 75.922 33.5601C75.8425 33.6101 75.753 33.4401 75.6437 33.4401ZM83.9134 28.0801C83.9929 27.9901 84.1022 27.8801 83.9134 28.0801V28.0801Z" fill="white"/>
<path d="M85.3647 34.4903C85.3647 34.4903 85.3547 34.4603 85.3547 34.4203C85.3247 34.4403 85.3147 34.4603 85.3647 34.4903Z" fill="white"/>
<path d="M69.6601 43.7397C69.6601 43.7397 69.6601 43.7397 69.6701 43.7297C69.6601 43.7297 69.6501 43.7297 69.6601 43.7397Z" fill="white"/>
<path d="M70.048 44.0195C70.048 44.0195 70.018 44.0695 69.998 44.0795C70.048 44.0695 70.058 44.0395 70.048 44.0195Z" fill="white"/>
<path d="M91.3679 41.65C91.3679 41.65 91.7555 41.41 91.4375 41.42C91.2983 41.42 89.5788 40.87 89.4893 41.68C89.4595 41.96 88.8433 41.54 88.5351 41.87C88.5252 41.87 88.5152 41.93 88.5053 41.96C88.6246 41.97 88.7936 42.15 88.9725 42.03C88.883 42.1 88.7538 42.18 88.7339 42.24C88.7637 42.18 88.893 42.47 88.9128 42.46C88.9923 42.42 89.0222 42.23 89.052 42.16C89.052 42.56 89.6583 42.34 89.6583 43C89.6583 43.25 91.0101 42.2 90.6522 42.41C91.1592 41.72 91.3679 42.6 91.9046 42.29C91.9245 42.29 92.004 42.12 92.004 42.1C92.004 41.94 91.2089 42.04 91.3679 41.66V41.65Z" fill="white"/>
<path d="M88.5153 41.95C88.5153 41.95 88.5153 41.95 88.5053 41.95C88.5053 41.98 88.5153 41.97 88.5153 41.95Z" fill="white"/>
<path d="M91.3879 45.2898C91.3482 45.0798 91.3482 44.9598 91.3482 44.8198C91.3482 44.6198 90.6226 43.9798 90.6524 43.8798C90.6226 43.8198 90.5729 42.9598 90.5331 42.9898C90.3741 43.0798 90.056 45.1798 89.8672 45.0698C89.6485 44.9498 89.3404 45.0098 89.1515 44.8198C89.082 44.7398 89.569 44.0498 89.4895 44.0098L89.4199 43.9298C89.3205 43.9898 89.3901 44.1098 89.3205 44.1498C89.3106 44.1498 89.2807 44.0298 89.3006 44.0098C89.0223 44.1698 88.8235 44.1198 88.6049 44.2398C88.5253 44.2798 88.744 44.3398 88.7142 44.4098C88.7142 44.4098 87.7501 45.5298 88.1476 45.3298C88.0781 45.5398 87.9488 45.3798 87.8793 45.5998C87.8296 44.8698 87.2034 46.1298 87.1537 46.3198C87.104 46.3498 87.0642 46.2998 87.0344 46.3198C86.935 46.3798 87.0543 46.5398 87.0543 46.5598C86.945 46.5798 87.0245 46.5598 86.9748 46.7098C86.945 46.6598 86.9549 46.5098 86.9251 46.4798C86.3983 47.4998 85.9311 47.9998 85.1757 48.8998C85.1757 48.8798 85.2055 48.7098 85.1757 48.7298C85.1161 49.0798 85.136 49.4998 85.0763 49.7798C85.0763 49.8098 85.0366 49.8398 85.0266 49.8598C85.0266 49.8398 85.0068 49.7498 84.9769 49.7598C84.8577 49.7998 85.0167 49.9298 84.9372 49.9798C84.9272 49.9498 84.8974 49.7398 84.8477 49.7698C84.9372 49.7198 84.9968 51.1398 84.9571 51.3098C84.7583 52.2598 84.808 51.9298 85.5435 51.3898C86.1995 50.8998 86.7561 50.1398 87.4519 49.7298C87.6705 49.5998 87.8097 49.6098 87.9091 49.6598C88.0284 50.3198 88.1377 50.9498 88.7639 51.0498C88.9329 51.0798 89.2112 50.8898 89.3503 50.6198C89.4199 50.4898 89.4795 50.3598 89.5392 50.2298C90.0163 49.9498 91.9346 46.3098 91.875 45.5498C91.8948 45.7698 91.3879 44.9398 91.3879 45.2598V45.2898Z" fill="white"/>
</svg>
