<svg xmlns="http://www.w3.org/2000/svg" width="129" height="24" fill="none" xmlns:v="https://vecta.io/nano"><path d="M79.875 7.125h3.304v1.254c.809-1.103 1.808-1.442 3.098-1.442 1.206 0 2.031.322 2.721 1.442.878-1.103 1.893-1.442 3.236-1.442 2.151 0 3.392 1.005 3.392 3.034V16.5h-3.58v-5.162c0-1.139-.344-1.665-1.222-1.665s-1.291.543-1.291 1.7V16.5h-3.564v-5.039c0-1.244-.344-1.786-1.273-1.786-.809 0-1.239.561-1.239 1.646V16.5h-3.58V7.012v.113zm23.476 8.176c-.937.823-1.993 1.199-3.344 1.199-2.096 0-3.257-1.062-3.257-2.895 0-2.022 1.281-2.587 4.002-2.93 1.766-.222 2.53-.137 2.53-.977 0-.531-.433-.755-1.317-.755-.763 0-1.161.291-1.23.908h-3.569c.035-2.04 1.698-2.914 4.922-2.914 1.681 0 2.962.172 3.587.583.971.652 1.177 1.336 1.177 2.553v5.073a.89.89 0 0 0 .398.771v.395h-3.673l-.224-1.013-.002.002zm-2.877-1.8c0 .515.363.823 1.039.823 1.23 0 1.75-.549 1.75-1.748l-.018-.462c-1.698.634-2.773.515-2.773 1.388l.002-.002zm8.09-6.376h3.209v1.044c.721-.987 1.647-1.232 2.952-1.232 2.316 0 3.963 1.717 3.963 4.678s-1.597 4.697-4.034 4.697c-1.115 0-1.937-.177-2.574-.991v4.553h-3.518V7.125h.002zm5.046 2.361c-1.081 0-1.528.675-1.528 2.129s.497 2.078 1.493 2.078 1.493-.693 1.493-2.078-.462-2.129-1.458-2.129zm9.192 3.83c0 .771.398 1.149 1.196 1.149s1.195-.274 1.195-.755c0-.652-.52-.72-1.542-.943-2.842-.6-4.158-1.096-4.158-3.018s1.542-2.812 4.521-2.812c2.754 0 4.262.79 4.486 2.675h-3.291c-.051-.531-.502-.892-1.16-.892s-.988.24-.988.634c0 .652.606.652 1.751.909 2.737.617 4 1.114 4 3.084 0 2.073-1.646 3.153-4.867 3.153-2.981 0-4.54-1.062-4.695-3.187h3.552v.004zm-83.849-2.638c0-1.627-.298-2.395-1.688-2.395-1.477 0-2.357.945-2.357 2.624v5.592h-1.566V10.68c0-1.627-.298-2.395-1.688-2.395-1.46 0-2.357.962-2.357 2.624V16.5H27.75V7.125h1.477v1.334c.686-1.032 1.601-1.522 2.867-1.522 1.16 0 1.935.455 2.514 1.434.791-.98 1.707-1.434 2.956-1.434s2.11.455 2.568 1.242c.352.63.369 1.398.369 2.379V16.5h-1.547v-5.818-.004zm11.17 2.63c-.347 1.991-1.941 3.192-4.194 3.192-2.637 0-4.304-1.769-4.304-4.686 0-3.107 1.667-4.876 4.304-4.876s4.321 1.631 4.321 4.549l-.017.669h-6.922c.037 1.906 1.063 2.97 2.764 2.97 1.318 0 2.197-.653 2.454-1.82h1.593v.002zm-1.557-2.404c-.018-1.7-.953-2.626-2.581-2.626s-2.527.91-2.674 2.626h5.255zm2.997-3.779h1.512v1.676c.499-1.26 1.352-1.863 2.579-1.863l.409.017v1.65c-.124-.017-.249-.017-.373-.017-1.672 0-2.562.923-2.562 2.661V16.5h-1.565V7.125zm9.143 9.319c-2.431 0-4.081-1.877-4.081-4.779s1.631-4.727 4.097-4.727c1.372 0 2.188.581 2.864 1.417v-1.23h1.476v8.843c0 2.713-1.216 3.907-4.236 3.907-2.447 0-3.837-1.007-3.837-2.611v-.068h1.493v.034c0 .922.799 1.383 2.396 1.383 1.963 0 2.709-.699 2.709-2.321v-1.228c-.711.922-1.666 1.383-2.883 1.383l.002-.002zm-2.482-4.745c0 2.167 1.024 3.397 2.691 3.397 1.858 0 2.725-1.075 2.725-3.345s-.938-3.465-2.744-3.465c-1.701 0-2.674 1.194-2.674 3.413h.002zm8.943-7.949h1.568v1.761h-1.568V3.75zm0 3.375h1.568V16.5h-1.568V7.125zm9.621 3.616c0-1.638-.374-2.395-1.872-2.395-1.729 0-2.762 1.004-2.762 2.818V16.5h-1.568V7.125h1.496v1.416c.713-1.056 1.694-1.603 2.995-1.603 1.408 0 2.369.458 2.888 1.286.392.599.409 1.321.409 2.219V16.5h-1.586v-5.757-.002z" fill="#12181f"/><path d="M12 20.001h7.999v-16H12V0h12v24H12v-3.999zM5.526 12c0 3.576 2.898 6.472 6.472 6.472V5.528c-3.576 0-6.472 2.898-6.472 6.472z" fill="#73d19c"/><path d="M12 20.001H3.999v-16H12V0H0v24h12v-3.999zM18.472 12c0 3.576-2.898 6.472-6.472 6.472V5.528c3.576 0 6.472 2.898 6.472 6.472z" fill="#12181f"/></svg>