<svg width="124" height="101" viewBox="0 0 124 101" fill="none" xmlns="http://www.w3.org/2000/svg">
<path d="M67.2002 100.8C93.7091 100.8 115.2 79.3512 115.2 52.8003C115.2 26.2484 93.6144 4.7998 67.2002 4.7998C40.6913 4.7998 19.2002 26.2484 19.2002 52.8003C19.2002 79.3512 40.6913 100.8 67.2002 100.8Z" fill="#F0C4BC"/>
<g clip-path="url(#clip0_689_32509)">
<path d="M68.8363 71.5489L85.1101 68.6794L79.3703 36.1277L63.0966 38.9972L61.6611 30.8564L86.0756 26.5515L94.6855 75.3809L70.2711 79.6859L68.8363 71.5489Z" fill="#73D19C"/>
<path d="M52.795 57.5936C54.0779 64.8692 61.0127 69.7217 68.2845 68.4395L63.6408 42.104C56.3652 43.3868 51.5128 50.3217 52.795 57.5936Z" fill="#73D19C"/>
<path d="M68.8357 71.5486L52.5582 74.4188L46.8184 41.8672L63.096 38.997L61.6606 30.8562L37.2461 35.1611L45.856 83.9905L70.2705 79.6856L68.8357 71.5486Z" fill="#73D19C"/>
<path d="M79.133 52.9495C80.4159 60.2251 75.559 67.1569 68.2872 68.4391L63.6436 42.1035C70.9191 40.8206 77.8508 45.6777 79.133 52.9495Z" fill="#73D19C"/>
</g>
<g clip-path="url(#clip1_689_32509)">
<path d="M70.4891 68.2442L86.7629 65.3747L81.0232 32.823L64.7494 35.6925L63.314 27.5518L87.7284 23.2468L96.3384 72.0762L71.9239 76.3812L70.4891 68.2442Z" fill="white"/>
<path d="M54.4488 54.2889C55.7317 61.5645 62.6665 66.4171 69.9383 65.1348L65.2946 38.7993C58.019 40.0822 53.1666 47.0171 54.4488 54.2889Z" fill="white"/>
<path d="M70.4886 68.244L54.211 71.1141L48.4712 38.5625L64.7488 35.6923L63.3134 27.5515L38.8989 31.8564L47.5089 80.6859L71.9233 76.3809L70.4886 68.244Z" fill="#004C45"/>
<path d="M80.7859 49.6448C82.0688 56.9204 77.2118 63.8522 69.9401 65.1344L65.2964 38.7988C72.5719 37.516 79.5037 42.373 80.7859 49.6448Z" fill="#004C45"/>
</g>
<path d="M114.4 20.7998C116.609 20.7998 118.4 19.0096 118.4 16.7998C118.4 14.591 116.609 12.7998 114.4 12.7998C112.191 12.7998 110.4 14.591 110.4 16.7998C110.4 19.0096 112.191 20.7998 114.4 20.7998Z" fill="#F0C4BC"/>
<path d="M120.8 4.8C122.126 4.8 123.2 3.72516 123.2 2.40003C123.2 1.07403 122.126 0 120.8 0C119.475 0 118.4 1.07403 118.4 2.40003C118.4 3.72516 119.475 4.8 120.8 4.8Z" fill="#F0C4BC"/>
<path d="M28.0001 10.3996C29.3261 10.3996 30.4001 9.32562 30.4001 7.99961C30.4001 6.67446 29.3261 5.59961 28.0001 5.59961C26.675 5.59961 25.6001 6.67446 25.6001 7.99961C25.6001 9.32562 26.675 10.3996 28.0001 10.3996Z" fill="#F0C4BC"/>
<path d="M4.8 68.8002C7.45108 68.8002 9.6 66.6494 9.6 64.0002C9.6 61.351 7.45108 59.2002 4.8 59.2002C2.14892 59.2002 0 61.351 0 64.0002C0 66.6494 2.14892 68.8002 4.8 68.8002Z" fill="#F0C4BC"/>
<defs>
<clipPath id="clip0_689_32509">
<rect width="52.8881" height="52.8881" fill="white" transform="translate(37.2461 35.1611) rotate(-10)"/>
</clipPath>
<clipPath id="clip1_689_32509">
<rect width="49.5826" height="49.5826" fill="white" transform="translate(38.8989 31.8564) rotate(-10)"/>
</clipPath>
</defs>
</svg>
