<svg xmlns="http://www.w3.org/2000/svg" width="124" height="101" fill="none" xmlns:v="https://vecta.io/nano"><path d="M67.2 100.8c26.509 0 48-21.449 48-48s-21.586-48-48-48c-26.509 0-48 21.449-48 48.001s21.491 48 48 48z" fill="#f0c4bc"/><path d="M79.228 71.708c-1.051-.669-2.867.382-3.918 2.293s-1.051 3.918 0 4.491l-1.051-.573c-1.051-.669-1.051-2.676 0-4.491 1.051-1.911 2.867-2.867 3.918-2.293l1.051.573z" fill="#131528"/><path d="M79.228 71.708c1.051.669 1.051 2.676 0 4.491-1.051 1.911-2.867 2.867-3.918 2.293-1.051-.669-1.051-2.676 0-4.491 1.051-1.911 2.771-2.867 3.918-2.293z" fill="#101224"/><path d="M79.133 73.237c-.669-.382-1.816.287-2.58 1.433-.669 1.242-.669 2.484 0 2.962l-.478-.287c-.669-.382-.669-1.72 0-2.962s1.816-1.911 2.58-1.433l.478.287z" fill="#322b4e"/><path d="M79.133 73.237c.669.382.669 1.72 0 2.962s-1.816 1.911-2.58 1.433c-.669-.382-.669-1.72 0-2.962.764-1.147 1.911-1.816 2.58-1.433z" fill="#201b3c"/><path d="M73.972 76.868l-11.849 6.785-18.825-10.894 11.849-6.785 18.825 10.894z" fill="#293773"/><path d="M62.122 83.653V84.8L43.297 73.907V72.76l18.825 10.894z" fill="#4a692b"/><path d="M73.972 76.868v1.051L62.123 84.8v-1.147l11.849-6.785z" fill="#405224"/><path d="M56.771 47.531l2.771 34.592c0 .86.287 1.433.764 1.72L41.482 72.95c-.478-.287-.764-.86-.764-1.72l-2.771-34.592 18.825 10.894z" fill="#73d19c"/><g fill="#64b888"><path d="M78.654 34.822l-1.147 35.93c-2.198 1.242-3.631 3.631-3.727 6.211l-11.563 6.594c-.764.478-1.433.478-1.911.191s-.764-.86-.764-1.72l-2.771-35.261 21.883-11.945z"/><path d="M36.8 36.926c0 .382.191.669.669.956l17.105 9.938c.86.478 2.293.478 3.249 0l20.927-12.04c.478-.287.669-.573.669-.956v1.911c0 .382-.191.669-.669.956L57.823 49.73c-.86.478-2.293.478-3.249 0l-17.105-9.938c-.478-.287-.669-.573-.669-.956v-1.911z"/></g><path d="M36.8 36.926c0-.382.191-.669.669-.956l20.927-12.04c.86-.478 2.293-.478 3.249 0l17.105 9.938c.478.287.669.573.669.956s-.191.669-.669.956l-20.927 12.04c-.86.478-2.293.478-3.249 0l-17.105-9.938c-.478-.287-.669-.573-.669-.956z" fill="#004c45"/><path d="M75.692 35.11L56.772 46.003c-.096 0-.287.095-.573.095s-.573-.095-.573-.095l-15.098-8.696c-.287-.096-.287-.478 0-.669l18.92-10.894c.096 0 .287-.096.573-.096h.287c.096 0 .191.096.287.096l15.098 8.696c.287.191.287.478 0 .669z" fill="#203565"/><path d="M36.8 34.154c0 .382.191.669.669.956l17.105 9.938c.86.478 2.293.478 3.249 0L78.75 32.912c.478-.287.669-.573.669-.956v2.007c0 .382-.191.669-.669.956l-20.927 12.04c-.86.478-2.293.478-3.249 0l-17.105-9.938c-.478-.287-.669-.573-.669-.956v-1.911z" fill="#64b888"/><path d="M36.8 34.154c0-.382.191-.669.669-.956l20.927-12.04c.86-.478 2.293-.478 3.249 0l17.105 9.938c.478.287.669.573.669.956s-.191.669-.669.956l-20.927 12.04c-.86.478-2.293.478-3.249 0L37.469 35.11c-.478-.287-.669-.573-.669-.956z" fill="#73d19c"/><path d="M44.158 31.956c0 .191.191.478.478.573l11.18 6.498c.573.382 1.529.382 2.102 0l13.665-7.931c.287-.191.478-.382.478-.573v2.198c0 .191-.191.478-.478.573l-13.665 7.931c-.573.382-1.529.382-2.102 0l-11.18-6.498c-.287-.191-.478-.382-.478-.573v-2.198z" fill="#64b888"/><path d="M44.158 31.956c0-.191.191-.478.478-.573L58.3 23.452c.573-.382 1.529-.382 2.102 0l11.18 6.498c.287.191.478.382.478.573s-.191.478-.478.573l-13.665 7.931c-.573.382-1.529.382-2.102 0l-11.18-6.402c-.287-.191-.478-.382-.478-.669z" fill="#73d19c"/><path d="M41.865 32.53v-1.816l5.351-3.058v1.816l-5.351 3.058z" fill="#004c45"/><path d="M41.865 30.715c-.478-.287-.86-.287-1.147-.096l5.351-3.058c.287-.191.669-.096 1.147.096l-5.351 3.058z" fill="#9cf9c5"/><path d="M41.865 32.53l-1.529-.86c0-.478.191-.86.478-1.051s.669-.096 1.147.096v1.816h-.096z" fill="#004c45"/><path d="M60.595 43.327s-.669-2.198-1.529-2.676l5.351-3.058c.86.478 1.529 2.676 1.529 2.676l-5.351 3.058z" fill="#9cf9c5"/><path d="M61.073 42.754l-.573-1.338 4.3-2.485.573 1.338-4.3 2.484z" fill="#004c45"/><path d="M60.594 43.327l-1.529-.86v-1.816c.86.478 1.529 2.676 1.529 2.676z" fill="#64b888"/><path d="M114.4 20.8a4 4 0 1 0 0-8 4 4 0 1 0 0 8zm6.4-16a2.4 2.4 0 1 0 0-4.8 2.4 2.4 0 1 0 0 4.8zM28 10.4a2.4 2.4 0 0 0 0-4.8 2.4 2.4 0 0 0 0 4.8zM4.8 68.8a4.8 4.8 0 1 0 0-9.6 4.8 4.8 0 1 0 0 9.6z" fill="#f0c4bc"/><circle cx="87.2" cy="71.2" r="15.2" fill="#5a2740"/><path d="M87.2 77.599a1.6 1.6 0 1 0 0-3.2 1.6 1.6 0 1 0 0 3.2zm.001-4.266c.283 0 .554-.112.754-.312s.313-.471.313-.754v-6.4c0-.283-.112-.554-.312-.754s-.471-.312-.754-.312-.554.112-.754.312-.312.471-.312.754v6.4a1.06 1.06 0 0 0 .313.754c.201.2.471.312.754.312z" fill="#fff"/></svg>