<svg width="50" height="50" viewBox="0 0 50 50" fill="none" xmlns="http://www.w3.org/2000/svg">
<path d="M25 50C38.8067 50 50 38.8289 50 25.0003C50 11.1712 38.7574 0 25 0C11.1933 0 0 11.1712 0 25.0003C0 38.8289 11.1933 50 25 50Z" fill="#B7CDC4"/>
<g clip-path="url(#clip0_241_24172)">
<path d="M23.9168 34.2426L32.1478 34.9627L33.5882 18.4985L25.3572 17.7784L25.7174 13.6609L38.0659 14.7412L35.9052 39.4385L23.5567 38.3582L23.9168 34.2426Z" fill="#73D19C"/>
<path d="M17.976 25.4265C17.654 29.1064 20.3754 32.3474 24.0533 32.6692L25.2187 19.349C21.5388 19.0271 18.2978 21.7485 17.976 25.4265Z" fill="#73D19C"/>
<path d="M23.9164 34.2426L15.6834 33.5223L17.1238 17.0581L25.3568 17.7784L25.7171 13.6609L13.3685 12.5806L11.2078 37.2778L23.5563 38.3582L23.9164 34.2426Z" fill="#73D19C"/>
<path d="M31.2969 26.5921C30.975 30.2721 27.7322 32.9913 24.0542 32.6696L25.2196 19.3494C28.8995 19.6713 31.6187 22.9141 31.2969 26.5921Z" fill="#73D19C"/>
</g>
<g clip-path="url(#clip1_241_24172)">
<path d="M25.141 32.8603L33.372 33.5804L34.8125 17.1162L26.5814 16.3961L26.9416 12.2786L39.2902 13.3589L37.1294 38.0562L24.7809 36.9758L25.141 32.8603Z" fill="white"/>
<path d="M19.1987 24.0446C18.8767 27.7245 21.5981 30.9656 25.276 31.2874L26.4414 17.9672C22.7615 17.6453 19.5205 20.3666 19.1987 24.0446Z" fill="white"/>
<path d="M25.1406 32.8603L16.9076 32.14L18.3481 15.6758L26.581 16.3961L26.9413 12.2786L14.5928 11.1982L12.432 35.8955L24.7806 36.9759L25.1406 32.8603Z" fill="#004C45"/>
<path d="M32.5212 25.2101C32.1992 28.89 28.9564 31.6093 25.2784 31.2875L26.4438 17.9673C30.1237 18.2892 32.8429 21.5321 32.5212 25.2101Z" fill="#004C45"/>
</g>
<circle cx="35.4172" cy="34.5839" r="7.91667" fill="#5A2740"/>
<path d="M35.4169 37.9169C35.8771 37.9169 36.2502 37.5438 36.2502 37.0836C36.2502 36.6233 35.8771 36.2502 35.4169 36.2502C34.9567 36.2502 34.5836 36.6233 34.5836 37.0836C34.5836 37.5438 34.9567 37.9169 35.4169 37.9169Z" fill="white"/>
<path d="M35.417 35.6947C35.5644 35.6947 35.7057 35.6362 35.8099 35.532C35.9141 35.4278 35.9726 35.2865 35.9726 35.1391V31.8058C35.9726 31.6585 35.9141 31.5171 35.8099 31.413C35.7057 31.3088 35.5644 31.2502 35.417 31.2502C35.2697 31.2502 35.1284 31.3088 35.0242 31.413C34.92 31.5171 34.8615 31.6585 34.8615 31.8058V35.1391C34.8615 35.2865 34.92 35.4278 35.0242 35.532C35.1284 35.6362 35.2697 35.6947 35.417 35.6947Z" fill="white"/>
<defs>
<clipPath id="clip0_241_24172">
<rect width="26.4443" height="26.4443" fill="white" transform="translate(13.3681 12.5803) rotate(5)"/>
</clipPath>
<clipPath id="clip1_241_24172">
<rect width="24.7916" height="24.7916" fill="white" transform="translate(14.5935 11.1982) rotate(5)"/>
</clipPath>
</defs>
</svg>
